<?xml version="1.0" encoding="UTF-8"?>
<svg id="Layer_2" data-name="Layer 2" xmlns="http://www.w3.org/2000/svg" viewBox="0 0 75 72">
  <defs>
    <style>
      .cls-1 {
        fill: none;
      }

      .cls-2 {
        fill: #d79c3f;
      }
    </style>
  </defs>
  <g id="Layer_1-2" data-name="Layer 1">
    <path class="cls-2" d="M54.14,14.7c3.02,2.85,6.51,6.03,9.26,9.1,4.36,4.87,4.44,10.04.11,14.99l-22.73,22.5c-3.04,2.41-7.38,1.15-9-2.26-.27-.56-.41-1.7-.76-2.01-.27-.24-1.79-.69-2.39-1.01-1.07-.58-2.1-1.82-2.59-2.93-.2-.45-.37-1.56-.5-1.73-.29-.34-2.82-.82-4.09-2.38-.67-.82-1.45-3.18-1.59-3.3-.26-.23-1.56-.4-2.11-.66-3.61-1.66-4.51-6.19-2.04-9.22,3.95-3.55,7.35-7.8,11.23-11.39,1.15-1.06,2.38-2.26,4.07-2.21,3.55.09,6.18,6.51,9.41,6.77,1.88.15,3.22-2.02,2.05-3.77-1.09-1.62-8.48-8.87-10.19-10.2-2.13-1.66-4.46-2.07-6.91-.76-1.62.87-10.46,9.66-11.76,11.39-.72.96-1.31,2.31-1.38,3.52-.11,1.82,1.96,5.33-1.07,5.72-1.9.25-2.48-2.04-2.72-3.47-.49-2.89.1-5.81,1.96-8.13,2.36-2.93,8.54-9.04,11.47-11.47,4.59-3.82,10.93-2.73,14.66,1.7,3.02-3.3,6.96-4.92,11.41-3.55,2.77.86,4.22,2.88,6.2,4.74ZM32.33,33.32c.48.48.68,1.77.24,2.36l-8.04,8.1c-1.43,1.82.11,4.36,2.4,3.24,1.87-1.13,7.5-8.28,9.02-8.62,1.67-.37,3.22,1.47,2.18,3.04-1.63,2.45-5.83,5.24-7.76,7.75s.32,4.83,2.46,3.31c2.65-1.89,5.41-6.25,8.08-8.06,1.98-1.34,3.91.61,2.93,2.51-2.2,2.78-5.84,5.26-7.94,7.99-1.89,2.46.35,4.73,2.67,3.09l22.4-22.41c2.23-2.48,2.37-5.53.31-8.17-4.21-3.58-8.07-8.94-12.31-12.33-3.21-2.56-6.97-2.01-9.36,1.28,1.82,2.64,5.42,4.72,6.74,7.71,2.09,4.73-2.04,9.58-7,8.91-3.23-.44-5.52-4.35-7.9-6.33l-.81-.17-11.31,11.22c-2.21,2.14-.29,5.41,2.45,3.3,2.69-2.07,5.16-5.66,7.86-7.85.63-.55,2.15-.38,2.69.16Z"/>
    <rect class="cls-1" width="75" height="72"/>
  </g>
</svg>