<?xml version="1.0" encoding="UTF-8"?>
<svg id="Layer_2" data-name="Layer 2" xmlns="http://www.w3.org/2000/svg" viewBox="0 0 75 72">
  <defs>
    <style>
      .cls-1 {
        fill: none;
      }

      .cls-2 {
        fill: #d79c3f;
      }
    </style>
  </defs>
  <g id="Layer_1-2" data-name="Layer 1">
    <path class="cls-2" d="M62.27,16.04c.26-2.14,1.7-3.23,3.29-4.45.09-1.81-.53-4.46,2.03-4.56,2.72-.1,1.99,2.96,2.04,4.75,2.04.98,2.81,2.55,2.97,4.8.7,10.01-.39,21.03-.2,31.11-.34,4.84.48,10.35.02,15.11-.06.63-.27,1.38-.88,1.7-1.55.83-5.62.28-7.48.29-6.37.03-12.65.14-18.97.05-1.35-.02-4.43.09-5.52-.15-.93-.21-.84-.79-1.11-1.39-.04-.09-.31-.03-.31-.05v-6.99h-2.39v7.36s-.23-.03-.3.06c-.46.59-.74,1.11-1.63,1.05H3.79c-.63-.04-1.19-.55-1.62-.97l.05-48.83c.69-1.28,1.32-2.2,2.6-2.98-.04-1.93-.46-4.7,2.28-4.64,2.54.06,1.59,2.78,1.79,4.47,1.44.77,2.2,1.58,2.8,3.09.13.33.05.69.13.94.07.22.36.11.36.13v7.55c5.48-.36,10.04-3.64,14.88-5.84,1.68-.76,5.33-2.52,7.08-2.22.84.14.86.58,1.24,1.12.12.17.37.11.37.13v12.79l.27.23,2.13-.14v-13.07s.23.03.3-.06c.2-.26.32-.58.63-.75,1.63-.91,5.9,1.05,7.58,1.79,5.08,2.23,9.92,5.6,15.62,6.02.2-2.36-.27-5.15,0-7.45ZM66.14,60.86h2.76V16.5s-.25.03-.3-.06c-1.13-2.06-2.07-.9-2.28.89l-.19,43.53ZM5.91,16.78v44.08h2.58c-.17-14.62-.23-29.25-.19-43.9,0-1.63-2.13-1.97-2.39-.19ZM31.88,20l-2.95,1.29v17.3h.92c.09-.09-.09-1.71,0-2.08.03-.14.33-.11.36-.25.28-1.23,0-2.53.92-3.79.14-.19.74-.44.74-.6v-11.87ZM42.01,20v10.95c0,.1-.24.19-.09.63.14.41.74.74,1.02,1.2.16.27,1.06,2.3,1.09,2.44.23.97.15,2.35.19,3.37h.73c-.23-.63.35-.71.39-1v-15.99s-3.33-1.6-3.33-1.6ZM25.07,32.15v-9.02c-1.29.4-2.36,1.42-3.68,1.66v7.36h3.68ZM52.7,24.79c-1.31-.32-2.45-1.13-3.68-1.66v9.02s3.68,0,3.68,0v-7.36ZM17.7,26.44l-5.53.92v4.79h5.07c.06,0,.28-.24.46-.18v-5.52ZM62.27,27.55c-1.93-.17-3.88-.46-5.71-1.1v5.71h5.71v-4.6ZM33.91,38.41h6.26c.34-1.73-.66-4.21-2.53-4.56-2.05-.38-2.74.58-3.38,2.21-.05.13-.32.13-.35.27-.13.58.08,1.45,0,2.08ZM17.7,36.2c-1.84-.41-3.7.29-5.53-.18v12.15h5.53v-11.96ZM25.07,36.01h-3.68v12.15h3.68v-12.15ZM52.7,36.01h-3.87v12.06c0,.5,1.7.08,2.12.08.63,0,1.14.17,1.75.2v-12.33ZM62.27,36.01h-5.71v12.33c1.88-.34,3.83-.22,5.71,0v-12.33ZM38.46,44.35c-.86-.66-2.34-.48-3.02.36-.34.43-.3,1.66-.2,2.21.09.46.74.73.86,1.71.11.86-.3,3.06,1.49,2.19.81-.39.34-1.19.36-1.66.05-1.26.99-1.57,1.12-2.75.07-.62-.11-1.67-.61-2.06ZM17.7,52.58h-5.53v8.01l.28.28h5.25v-8.28ZM25.07,52.58h-3.68v8.28h3.68v-8.28ZM52.7,52.58h-3.87v8.28h3.87v-8.28ZM62.27,52.58h-5.71v8.28h5.71v-8.28ZM32.07,56.26h-3.13v4.6h3.13v-4.6ZM44.96,56.26h-2.95l-.18,4.6h3.5c.19-.59-.36-.45-.38-.82v-.35s.38-.21.38-.21l-.02-.26c-.93-.16,0-.54.03-.83s.04-1.02-.02-1.27c-.02-.09-.63-.28-.36-.86Z"/>
    <rect class="cls-1" width="75" height="72"/>
  </g>
</svg>