<?xml version="1.0" encoding="UTF-8"?>
<svg id="Layer_2" data-name="Layer 2" xmlns="http://www.w3.org/2000/svg" viewBox="0 0 75 72">
  <defs>
    <style>
      .cls-1 {
        fill: none;
      }

      .cls-2 {
        fill: #d79c3f;
      }
    </style>
  </defs>
  <g id="Layer_1-2" data-name="Layer 1">
    <g>
      <path class="cls-2" d="M41.18,5.64c1.56,1.29,2.59,2.76,4.78,2.68,2.86-.11,5.91-1.46,7.93,1.58,1.42,2.14,1.28,5.02,2.74,6.93.88,1.15,3.38,1.83,4.58,2.8,1.63,1.31,2.25,2.85,2,4.95-.39,3.34-3.04,4.61-1.55,8.69.24.65.66.97.83,1.31.56,1.17,1.38,3.72,1.1,4.92-.03.11-.26.1-.31.24-.43,1.18-.79,1.92-1.81,2.75-1.68,1.36-4.3,1.93-4.97,4.2-.2.69-.14,1.42-.28,1.98-.02.09-.28.6-.4,1.11-.45,1.9-.66,1.68.09,3.63.84,2.2,2,4.54,2.8,6.74,2.46,6.73-4.08,3.34-7.78,3.41l-4.13,4.4c-.77.51-1.77.79-2.47,0-.85-.96-1.09-2.81-1.53-4.04-.46-1.3-1.17-2.85-1.65-4.13-.15-.41-.24-1.06-.34-1.51-.13-.12-1.36.78-1.64.9-1.15.47-2.08.5-3.27.16-.7-.2-1.18-.61-1.81-.9l-1.16,3.47c-.59,1.17-1.1,2.64-1.61,3.86-.49,1.17-.26,2.16-1.82,2.58-.72.19-1.22-.32-1.79-.68l-3.57-4.16-6.52.83c-3.04-.06-1.71-3.22-1.1-5.02.76-2.24,1.78-4.8,2.8-6.91.41-.86.33-1.17,0-2.03-.04-.11-.25-.13-.3-.26-.74-2.18.06-3.79-2.06-5.44-1.2-.93-3.28-1.69-4.27-2.94-1.14-1.44-1.63-3.75-1.07-5.51.08-.26.28-.24.32-.37.63-1.89,1.83-3.76,1.64-5.67-.1-1.02-1.25-3.37-1.64-4.72-.04-.13-.28-.13-.31-.24-.07-.3-.07-2.58,0-2.88.03-.12.26-.12.31-.25,1.19-2.8,2.92-2.84,5.18-4.29,1.44-.93,1.31-1.18,1.89-2.66.38-.96.45-1.38.72-2.42.44-1.68,1.05-3.31,2.65-4.23,2.79-1.62,6.13.67,8.31-.54,2.38-1.32,3.91-4.79,7.22-4.38,1.4.17,2.3,1.25,3.27,2.06ZM51.24,12.3s-.88-.75-.94-.78c-.72-.33-3.2.37-4.17.41-2.12.1-3.45-.38-5.08-1.65-.95-.74-2.74-3.16-3.9-2.92-.86.18-3.06,2.6-3.97,3.25-3.35,2.36-4.82.69-8.03.81-1.15.04-1.59.94-1.94,1.84-.47,1.21-.58,2.58-1.02,3.9-.12.35-.3.68-.4,1.04-1.22,2.06-3.38,2.64-5.22,3.83-1.41.91-1.75,1.78-1.18,3.42.33.97,1.12,2.35,1.47,3.32.89,2.42-.18,4.57-1.09,6.71-.08.19-.31.2-.36.33-1.81,4.27,1.42,4.27,3.91,6.36,1.39,1.16,1.58,1.76,2.16,3.38.04.11.25.13.3.26.53,1.62,0,4.24,1.76,5.09,1.43.69,3.84-.15,5.55.02,3.6.36,4.67,3.61,7.24,4.89,2.24,1.11,4.51-2.47,6.04-3.58,1.29-.94,2.66-1.37,4.27-1.32,1.42.04,4.38,1.02,5.32-.4.77-1.16.61-1.99.86-3.23.45-2.23,1.14-3.77,2.99-5.2,1.52-1.18,5.09-2.3,4.16-4.78-.49-1.31-1.71-2.74-2.04-4.22-.4-1.79-.23-3.9.43-5.61.04-.12.25-.14.3-.26.51-1.34,1.72-3.57.34-4.69-1.13-.91-3.4-1.62-4.5-2.54-2-1.68-2.13-4.15-2.78-6.39-.09-.32-.28-1.04-.46-1.26ZM30.4,58.88c.22-.62.82-2.07.72-2.63-.06-.36-1.24-1.35-1.58-1.54-1.19-.66-1.92-.08-3.09-.03-1.49.07-2.97.05-4.41-.34l-2.39,6.23c2.11.09,4.62-1.27,6.48.17l2.54,2.78c-.14-.61.4-.9.52-1.21.43-1.08.85-2.4,1.22-3.44ZM52.74,54.54c-1.12.21-2.02.37-3.18.31-1.51-.08-3.44-.87-4.82-.08-.4.23-.74.86-1.25,1.06l2.55,7.86h.48c.25-.98,2.19-3.21,3.09-3.55,1.43-.54,3.86.59,5.44.44l-2.32-6.04Z"/>
      <path class="cls-2" d="M48.56,26.24c-2.82,3.95-6.55,8.18-9.84,11.79-1.49,1.64-2.73,4.09-5.42,2.92-1.39-.6-4.19-4.1-5.35-5.38-.89-.98-2.72-2.11-2.33-3.66.28-1.09,1.49-1.41,2.43-.94.24.12,1.1.87,1.35,1.1,1.36,1.26,2.68,3.25,4.09,4.43.69.57,1.3.57,1.97,0,.2-.17.81-.82,1.01-1.04,2.82-3.24,5.38-6.85,8.18-10.1.42-.48,1.81-2.12,2.21-2.38,1.46-.95,3.17.26,2.57,2.08-.22.68-.6.78-.88,1.17Z"/>
    </g>
    <rect class="cls-1" width="75" height="72"/>
  </g>
</svg>