<?xml version="1.0" encoding="UTF-8"?>
<svg id="Layer_2" data-name="Layer 2" xmlns="http://www.w3.org/2000/svg" viewBox="0 0 75 72">
  <defs>
    <style>
      .cls-1 {
        fill: none;
      }

      .cls-2 {
        fill: #d79c3f;
      }
    </style>
  </defs>
  <g id="Layer_1-2" data-name="Layer 1">
    <g>
      <path class="cls-2" d="M54.43,9.95c6.45,5.79,9.07,13.23,8.06,21.68-1.41,11.72-12.75,25.36-21.2,33.94-.98,1-1.82,2.53-3.41,2.85-1.18.23-2.56-.86-3.35-1.58-3.32-3.03-6.94-7.61-9.73-11.11-8.37-10.5-15.59-21.82-11.13-35.51C18.98,3.93,40.9-2.2,54.43,9.95ZM50.07,16.31c-13.21-13.99-34.82.81-29.84,16.94,4.09,13.27,21.85,18.08,31.14,6.2,5.76-7.38,5.09-16.38-1.29-23.14Z"/>
      <path class="cls-2" d="M26.88,23.79c3.8.07,5.96-3.45,9.48-3.71-.12-1.22-.08-2.87,1.71-2.39,1.41.37.83,1.29.97,2.37,3.34.53,5.36,3.75,8.87,3.73.32-.69-.04-2.64.46-3.01.53-.39,2.1-.16,2.3.54v18.04c-.23.66-1.23.83-1.9.88-7.31.6-15.54-.47-22.95,0-.93-.15-1.64-.59-1.7-1.5l.11-17.13c.21-1.4,2.64-1.14,2.64-.36v2.56ZM34.46,31.03l1.91-.08c.09-.05.18-.76.18-.89v-7.24l-.28-.26-1.8.7v7.77ZM40.53,23.44l-1.89-.71c-.09,2.71-.36,5.43-.11,8.14l2,.17v-7.6ZM32.56,24.67c-.67.01-1.37.42-1.9.79v5.56h1.9v-6.36ZM42.42,24.67v6.36h1.9v-5.39c0-.47-1.75-1.11-1.9-.97ZM28.58,25.91c-.57.05-1.3-.2-1.71.26v4.86h1.71v-5.12ZM46.4,25.91v5.12c.35-.04,1.58.17,1.66-.26l-.14-4.87h-1.52ZM28.58,33.15h-1.71v4.95h1.71v-4.95ZM32.56,33.15h-1.9v4.95h1.9v-4.95ZM36.54,33.15h-2.27c.37,1.61.12,3.31.19,4.95h2.09v-4.95ZM40.53,33.15h-2.09v4.95h2.09v-4.95ZM44.32,33.15h-1.9v4.95h1.9v-4.95ZM46.4,33.15v4.95c1.96.02,1.54.18,1.51-1.14s.11-2.33.2-3.54c.04-.55-1.31-.15-1.71-.26Z"/>
    </g>
    <rect class="cls-1" width="75" height="72"/>
  </g>
</svg>