<?xml version="1.0" encoding="UTF-8"?>
<svg id="Layer_2" data-name="Layer 2" xmlns="http://www.w3.org/2000/svg" viewBox="0 0 147.12 158.18">
  <defs>
    <style>
      .cls-1 {
        fill: #fff;
        fill-rule: evenodd;
      }
    </style>
  </defs>
  <g id="Layer_1-2" data-name="Layer 1">
    <g>
      <path class="cls-1" d="M80.16,139.72c-.26-3.69-.07-7.75-.41-11.16-.15-1.48-.03-3.04-.12-4.52-.29-4.44-.71-9.09-.7-13.58,0-2.92-.15-5.87-.13-8.65,0-1.31.27-2.61.21-3.85-.03-.66-.28-1.29-.33-1.88-.05-.59.13-1.14.1-1.73,0-.18-.23-.34-.26-.54-.05-.39.11-.8.07-1.19-.06-.66-.29-1.35-.32-2.01-.04-1.15.28-2.43.21-3.58-.03-.42-.24-.69-.23-1.08.07-1.33.11-1.71-.12-2.8-.37-1.74-.59-3.12-.72-4.83-.32-.36-.64-.73-1.09-.99-.13-.15-.2-.36-.28-.56.01-.02.03-.04.04-.06.06-.14-.09-.34,0-.44.09-.11.16-.2.22-.28.6.5,1.1,1.14,1.64,1.76.46.53,1.17.85,1.75,1.32.74.61,1.38,1.51,2.03,2.25.36.42.46.88.67,1.25.14.26.63.4.74.59.05.08-.11.36-.06.42,0,0,.24-.11.28-.1.09.03.09.17.15.23.39.36.79.83,1.21,1.29.73.8,1.75,1.36,2.48,2.15.4.43.68.98,1.1,1.38.21.21.61.24.82.45.18.18.26.46.43.65,1.49,1.63,2.9,3.24,4.46,4.6.01-.12-.29-.13-.05-.33.35.6,1.12.98,1.55,1.28.4.28.55.84.9.83.31,0-.05-.27.22-.19.47.39.95.72,1.32,1.19.15.17.36-.41.6-.39.12.03.05.39.29.18.24-.85-.24-1.2-.56-1.86-.84-1.7-1.99-3.48-3.43-4.85-1.12-1.06-2.01-2.52-3.15-3.4-.49-.38-.81-.97-1.27-1.38-1.37-1.24-2.93-2.43-4.13-3.85-.79-.92-1.7-1.74-2.45-2.62-.35-.41-.52-.99-.9-1.34-.21-.18-.56-.21-.76-.36-.2-.15-.22-.44-.4-.6-.06-.05-.27.05-.34,0-.14-.09-.14-.32-.28-.42-.23-.16-.59-.22-.79-.41-.35-.33-.47-.94-.84-1.25-.13-.11-.37-.05-.46-.18-.04-.05-.06-.09-.09-.14.03,0,.06-.02.09-.03,1.41-.39,2.92-.43,4.47-.56,1.05-.09,2.1-.52,3.19-.75,1.4-.29,3.06-.36,4.54-.52.82-.09,1.47.06,2.1.08.45.02,1.05-.34,1.39-.34.15,0,.33.29.45.27,0,0,.09-.27.14-.29.12-.07.29,0,.42-.02.79-.15,1.71-.26,2.63-.4,1.62-.23,3.21-.86,4.81-1.11.87-.15,1.79-.13,2.64-.31.44-.09.82-.43,1.27-.52.37-.07.78-.02,1.16-.09,3.28-.57,6.46-1.12,9.44-1.98-.13-.07-.4.21-.44-.1,1.04-.05,2.16-.6,2.88-.88.68-.25,1.48-.15,1.77-.48.25-.29-.37-.07-.05-.28.87-.28,1.68-.59,2.56-.74.34-.07-.2-.51.03-.73.13-.1.52.11.47-.2-.83-.59-1.67-.28-2.74-.26-2.76.06-5.88.35-8.77,1.04-2.23.54-4.76.66-6.8,1.26-.89.27-1.86.26-2.76.47-2.68.62-5.48,1.39-8.25,1.71-1.8.21-3.59.56-5.31.74-.81.08-1.64-.1-2.39.05-.4.08-.76.36-1.12.45-.36.09-.72-.05-1.07,0-.11.02-.18.25-.31.29-.24.07-.51-.05-.74,0-.4.1-.8.38-1.21.44-.71.11-1.53-.14-2.23,0-.26.05-.4.29-.64.29-.83,0-1.07-.02-1.72.27-1.04.47-1.88.75-2.92.97-.04.07-.08.14-.11.21-.06-.16-.19-.33-.61-.57.01.44-.14.36-.69.37.2.54-.45.47-.63.74-.17.25-.04.7-.11,1.01-.19.85-.73,1.55-1.21,2.32-.33.52-.37,1.23-.6,1.84-.29.79-.88,1.57-1.32,2.32-.24.42-.62.62-.89.9-.19.19-.13.65-.26.8-.06.07-.37,0-.4.06,0,0,.19.18.19.22.01.09-.12.13-.15.2-.18.44-.45.91-.7,1.4-.44.86-.53,1.9-.93,2.76-.22.47-.58.89-.76,1.37-.09.25.05.59-.04.84-.08.21-.29.37-.37.58-.77,1.81-1.5,3.58-1.83,5.4.11-.04-.04-.28.25-.17-.34.53-.26,1.3-.26,1.77-.02.44-.4.8-.2,1.06.18.23.2-.16.28.08-.05.54-.05,1.05-.22,1.55-.05.19.54.08.66.26.04.1-.29.22.02.3.83-.21.84-.72,1.19-1.25.92-1.36,1.76-2.91,2.22-4.52.34-1.26,1.18-2.45,1.43-3.64.1-.52.49-.95.65-1.45.49-1.49.92-3.13,1.72-4.51.52-.9.92-1.88,1.43-2.74.24-.4.71-.67.88-1.09.09-.22-.01-.53.05-.74.02-.07.08-.12.13-.17-.08.33-.18.65-.18,1-.02.84.33,1.72.43,2.55.27,2.3.17,4.71.15,7.2-.01,1.69.31,3.44.42,5.22.15,2.28.04,4.94.03,7.33,0,1.33-.23,2.32-.32,3.32-.07.71.21,1.74.17,2.27-.02.23-.32.47-.32.65,0,0,.25.2.28.28.05.2-.04.46-.03.66.06,1.28.06,2.76.08,4.27.04,2.63.46,5.28.52,7.88.04,1.42-.09,2.87-.02,4.26.03.72.32,1.41.36,2.14.03.61-.08,1.24-.06,1.86.16,5.35.31,10.51.79,15.47.08-.19-.16-.69.16-.66-.07,1.65.34,3.58.52,4.8.17,1.15-.03,2.39.27,2.93.26.47.12-.56.29,0,.04.3.07.59.11.89-.61-.39-1.34-.68-2.14-1.1-3.3-1.74-7.17-3.52-11.01-4.8-2.97-.98-6.06-2.49-8.84-3.28-1.21-.34-2.38-.96-3.57-1.35-3.57-1.17-7.35-2.28-10.86-3.73-2.28-.94-4.63-1.75-6.8-2.66-1.02-.43-1.93-1.09-2.92-1.43-.53-.18-1.11-.16-1.59-.3-.48-.14-.84-.48-1.31-.65-.15-.05-.35.11-.52.06-.32-.08-.59-.36-.9-.45-.53-.15-1.16-.16-1.69-.36-.91-.34-1.79-1.05-2.71-1.36-.34-.11-.63,0-.92-.14-1.01-.5-1.29-.66-2.23-.8-1.15-.17-2.11-.37-3.11-.64.43-1.77.71-3.72.62-5.59-.08-1.7.27-3.55.05-5.11-.1-.68.07-1.39.03-2.07-.14-2.04-.45-4.17-.36-6.22.06-1.34-.04-2.69.02-3.96.03-.6.31-1.19.27-1.76-.02-.3-.26-.59-.3-.86-.04-.27.14-.52.12-.79,0-.08-.23-.16-.25-.25-.04-.18.11-.37.08-.55-.05-.3-.28-.62-.29-.92-.03-.53.31-1.11.25-1.64-.02-.19-.24-.32-.22-.49.08-.61.13-.78-.09-1.28-.35-.8-.56-1.43-.68-2.21-.21-.11-.44-.22-.68-.32,1.64.01,3.48.23,5.15.36,1,.08,1.74.36,2.49.51.53.1,1.33-.11,1.73-.04.18.03.33.35.47.36,0,0,.17-.24.23-.26.15-.04.35.07.5.07.97.01,2.09.11,3.23.18,1.99.12,4.02-.12,5.99,0,1.07.06,2.16.29,3.22.32.54.02,1.09-.22,1.64-.2.46.02.93.18,1.4.2,4.05.26,7.95.54,11.72.54-.14-.1-.53.09-.49-.22,1.23.23,2.73,0,3.66-.05.88-.05,1.79.27,2.23.03.38-.21-.41-.17.03-.29,1.12-.02,2.16-.08,3.25.03.42.03-.06-.55.27-.69.18-.06.57.26.61-.05-.79-.8-1.87-.75-3.14-1.04-3.28-.73-7.08-1.32-10.72-1.41-2.82-.07-5.87-.59-8.48-.5-1.13.04-2.3-.2-3.43-.21-3.38-.04-6.93.09-10.34-.19-2.21-.18-4.46-.2-6.56-.37-.99-.08-1.96-.41-2.9-.42-.5,0-1,.21-1.44.23-.45.02-.86-.19-1.3-.19-.14,0-.27.22-.43.23-.3.03-.6-.15-.9-.13-.5.03-1.04.22-1.54.21-.87-.02-1.82-.4-2.7-.39-.32,0-.54.21-.83.17-1.01-.14-1.29-.2-2.13-.02-1.34.28-2.4.43-3.7.48-.3.31-.59.6-.82,1.04-.38.38-1.07.18-1.13,1.14.8-.19.81-.01,1.37.49.79-.39,1.31.23,2,.29.64.06,1.32-.24,1.96-.3,1.76-.16,3.58.07,5.46.21.77.06,1.57,0,2.38-.06.37.45-.18.77-.21,1.18-.03.38.31.79.4,1.17.25,1.05.12,2.16.08,3.29-.03.77.27,1.57.36,2.39.12,1.05-.03,2.26-.08,3.35-.02.61-.27,1.05-.37,1.51-.08.32.18.8.13,1.04-.02.11-.33.21-.33.29,0,0,.25.1.27.13.05.09-.05.21-.05.3.04.59,0,1.26,0,1.95-.02,1.2.33,2.42.32,3.6,0,.65-.18,1.31-.15,1.94.01.33.28.65.28.98,0,.28-.13.56-.13.85-.04,2.44-.12,4.8.08,7.07.09-.09-.12-.32.19-.3-.16.75.14,1.64.24,2.2.1.53-.18,1.09.08,1.34.23.22.16-.23.28,0-.03.02-.06.04-.09.06-.52.22-1.18-.22-1.56.66.9.12.85.29,1.28.98.2-.02.35.02.5.07,0,.06,0,.13,0,.19,0,.21.36.05.58.1.04.03.08.06.12.1,0,.12-.19.3.09.32.06-.04.09-.09.14-.13.17.15.36.29.57.38.65.3,1.46.26,2.15.44,1.9.5,3.74,1.38,5.67,2.21,1.31.56,2.8.83,4.23,1.3,1.84.6,3.87,1.56,5.73,2.34,1.03.43,1.72.96,2.47,1.36.53.29,1.44.36,1.84.57.18.09.24.45.39.51,0,0,.25-.17.32-.17.17.01.34.19.51.24,1.03.35,2.18.84,3.36,1.3,2.07.81,4.3,1.27,6.35,2.06,1.12.43,2.2,1.01,3.32,1.4.57.2,1.22.16,1.8.36.48.18.94.48,1.43.66,4.22,1.6,8.29,3.15,12.32,4.37-.12-.14-.59-.08-.46-.37,1.25.62,2.9.89,3.91,1.13.96.23,1.83.83,2.37.74.47-.08-.39-.3.11-.27,1.2.34,2.32.6,3.45,1.06.35.12.21-.27.32-.47.1.83.19,1.66.22,2.51.03.55.53-.16.72.26.08.23-.17.78.14.8.68-1.14.48-2.55.58-4.26.27-4.39.35-9.43.03-14.2ZM76.51,75.21s-.01,0-.02,0c0-.26.02-.5.04-.73.23.04.46.14.7.19,0,.03,0,.04.01.07-.22.15-.43.31-.74.46Z"/>
      <path class="cls-1" d="M129.25,131.32c-1.01-.32-1.8.24-2.91.59-2.85.91-6.02,2.17-8.83,3.75-2.17,1.23-4.76,2.16-6.71,3.4-.85.54-1.86.85-2.73,1.35-2.61,1.47-5.29,3.13-8.06,4.36-1.8.8-3.55,1.74-5.27,2.49-.81.35-1.72.46-2.46.86-.39.21-.68.61-1.02.81-.34.21-.76.19-1.1.38-.11.06-.11.31-.23.38-.22.15-.54.12-.76.26-.38.23-.71.63-1.11.83-.69.35-1.61.4-2.3.77-.25.14-.33.41-.57.5-.85.29-1.1.35-1.69.86-.93.8-1.7,1.37-2.7,1.94-.1.39-.2.78-.18,1.27-.13.49-.76.6-.39,1.49.55-.49.63-.34,1.31-.12.46-.68,1.14-.33,1.72-.56.53-.2.94-.76,1.42-1.07,1.32-.86,2.86-1.42,4.41-2.07,1.05-.44,2-1.21,3.06-1.8,1.35-.76,3.04-1.38,4.52-2.03.82-.36,1.53-.43,2.18-.62.46-.13.99-.67,1.33-.78.15-.05.42.17.54.11,0,0,.02-.29.06-.33.1-.1.3-.09.42-.15.77-.41,1.68-.81,2.6-1.25,1.6-.76,3.06-1.87,4.64-2.64.86-.42,1.81-.71,2.64-1.16.43-.23.73-.68,1.17-.91.37-.19.8-.27,1.18-.45,3.24-1.6,6.36-3.14,9.24-4.89-.16-.02-.36.33-.48.04,1.06-.38,2.08-1.26,2.75-1.74.64-.46,1.5-.6,1.71-1.01.18-.36-.4.04-.13-.26.83-.54,1.59-1.08,2.47-1.5.33-.17-.33-.44-.15-.72.11-.13.56-.05.43-.34Z"/>
      <path class="cls-1" d="M131.14,117.03c-.13-.68,0-1.4-.08-2.07-.25-2.03-.66-4.15-.66-6.22,0-1.34-.17-2.69-.17-3.96,0-.6.25-1.21.18-1.77-.04-.3-.29-.58-.35-.85-.06-.27.11-.53.08-.8-.01-.08-.24-.15-.26-.24-.05-.18.1-.37.06-.55-.07-.3-.31-.61-.34-.91-.05-.53.25-1.13.17-1.65-.03-.19-.25-.31-.24-.48.05-.61.09-.79-.16-1.28-.39-.78-.63-1.41-.79-2.18-.33-.15-.65-.31-1.11-.41-.41-.2-.27-.63-1.23-.59.25.47.08.48-.37.86.46.45-.12.8-.12,1.22,0,.39.35.77.46,1.15.3,1.04.23,2.15.24,3.29,0,.77.34,1.56.48,2.37.17,1.04.08,2.26.09,3.36,0,.61-.21,1.07-.3,1.53-.06.33.22.79.18,1.03-.02.11-.32.22-.32.31,0,0,.25.08.28.12.05.09-.04.21-.03.31.07.59.07,1.26.09,1.95.04,1.2.45,2.4.5,3.59.03.65-.11,1.32-.05,1.95.03.33.31.64.33.97.02.28-.1.57-.09.86.08,2.45.12,4.81.43,7.07.09-.09-.14-.31.18-.31-.12.76.22,1.64.35,2.19.13.53-.12,1.1.15,1.34.24.21.14-.26.29,0,.11.67.26,1.29.23,1.95,0,.25.54-.08.71.11.07.11-.21.36.1.36.73-.53.6-1.18.77-1.97.46-2.03.73-4.35.52-6.54-.16-1.7.1-3.57-.2-5.12Z"/>
      <path class="cls-1" d="M2,93.92c1.22-1.2,2.41-2.66,3.18-4.24.59-1.24,1.65-2.34,2.12-3.52.2-.52.65-.91.9-1.4.75-1.46,1.45-3.07,2.49-4.37.67-.85,1.23-1.78,1.89-2.57.31-.37.83-.57,1.07-.96.13-.21.08-.54.19-.74.1-.2.37-.24.49-.42.04-.06-.1-.24-.07-.32.06-.14.27-.16.34-.29.11-.22.1-.57.24-.77.25-.35.81-.5,1.03-.86.08-.13-.02-.35.09-.45.38-.32.51-.4.6-.85.15-.72.34-1.25.68-1.8-.15-.32-.29-.63-.56-1.01-.18-.4.17-.55-.54-1.21-.09.45-.23.34-.77.25.07.58-.56.39-.81.64-.24.22-.2.7-.34,1.01-.39.83-1.07,1.45-1.71,2.16-.44.48-.61,1.19-.96,1.78-.44.76-1.17,1.46-1.75,2.16-.32.39-.74.55-1.05.79-.22.17-.24.65-.4.78-.07.06-.37-.05-.41,0,0,0,.16.21.16.25,0,.09-.14.11-.18.18-.25.42-.61.86-.93,1.33-.58.81-.85,1.86-1.4,2.68-.29.45-.73.82-.99,1.29-.14.24-.05.61-.19.85-.12.2-.35.34-.47.54-1.08,1.72-2.12,3.38-2.83,5.15.12-.02.02-.29.29-.13-.44.47-.52,1.26-.63,1.73-.11.44-.57.72-.43,1.03.12.27.23-.12.25.14-.18.53-.3,1.05-.58,1.51-.1.19.51.2.58.41.02.11-.33.16-.05.31.86-.03,1-.55,1.47-1.02Z"/>
      <path class="cls-1" d="M41.74,68.58c-1.98-.23-3.98-.32-5.86-.55-.89-.11-1.73-.48-2.58-.51-.45-.02-.9.18-1.3.18-.4,0-.76-.22-1.16-.24-.12,0-.25.21-.4.21-.27.02-.53-.17-.8-.16-.45,0-.94.18-1.4.15-.78-.05-1.61-.48-2.4-.5-.29,0-.5.19-.75.14-.89-.18-1.14-.25-1.91-.12-1.22.22-2.18.32-3.35.3-.29.29-.57.57-.8,1-.37.36-.97.13-1.09,1.09.74-.15.73.03,1.2.56.74-.35,1.16.29,1.78.39.57.09,1.2-.18,1.78-.21,1.59-.07,3.21.23,4.9.45,1.14.15,2.37-.03,3.58,0,1.56.04,3.35.36,4.97.55.9.11,1.55.41,2.22.58.47.12,1.2-.08,1.56,0,.16.04.28.36.41.37,0,0,.16-.24.22-.25.14-.04.31.08.45.09.88.04,1.88.16,2.9.25,1.78.17,3.63-.04,5.39.11.96.08,1.93.32,2.89.36.49.02.99-.21,1.48-.18.42.03.83.18,1.26.21,3.64.29,7.14.58,10.54.56-.12-.1-.48.09-.43-.22,1.11.22,2.45,0,3.29-.07.8-.06,1.61.26,2.01.02.34-.21-.37-.17.03-.29,1-.03,1.94-.11,2.92,0,.38.02-.06-.55.24-.69.17-.06.51.25.55-.06-.71-.79-1.68-.73-2.82-1-2.94-.7-6.34-1.26-9.6-1.35-2.52-.07-5.25-.6-7.59-.54-1.02.03-2.06-.22-3.07-.25-3.03-.08-6.22-.02-9.25-.38Z"/>
      <path class="cls-1" d="M142.4,83.29c-2.75-.04-5.85.61-8.46,1.69-2.04.83-4.33,1.32-6.1,2.07-.78.33-1.67.41-2.48.66-2.41.77-5.01,1.6-7.61,1.98-1.69.25-3.39.66-5.02.93-.77.13-1.58,0-2.3.2-.38.11-.7.42-1.04.54-.33.12-.7.02-1.03.12-.11.03-.15.27-.26.32-.22.1-.49,0-.72.09-.37.15-.72.48-1.1.6-.66.2-1.49.11-2.14.37-.24.1-.33.35-.56.4-.79.19-1.02.23-1.57.65-.86.71-1.56,1.2-2.43,1.74-.07.39-.13.76-.07,1.23-.07.48-.62.56-.19,1.42.43-.45.52-.31,1.11-.06.33-.64.93-.27,1.41-.43.44-.15.76-.66,1.17-.9,1.13-.68,2.47-.99,3.85-1.33.93-.23,1.83-.76,2.81-1.09,1.26-.42,2.8-.58,4.17-.81.76-.12,1.37,0,1.97,0,.42,0,.97-.37,1.29-.37.14,0,.32.28.43.26,0,0,.07-.27.11-.3.11-.07.28,0,.39-.03.74-.18,1.6-.3,2.47-.46,1.53-.28,3.01-.95,4.52-1.29.82-.18,1.7-.25,2.51-.49.41-.13.75-.51,1.16-.64.35-.1.75-.09,1.1-.2,3.07-.95,5.89-2.03,8.54-3.11-.13-.05-.34.24-.42-.06.95-.15,1.92-.76,2.58-1.05.62-.28,1.36-.16,1.62-.49.23-.29-.34-.08-.05-.28.81-.25,1.58-.51,2.41-.56.32-.03-.14-.53.1-.72.14-.08.48.17.47-.14-.73-.68-1.6-.47-2.66-.48Z"/>
      <path class="cls-1" d="M141.47,80.9c.11.12.36-.41.56-.43.09,0,0,.32.22.1.32-.75-.04-.96-.23-1.46-.49-1.27-1.23-2.56-2.27-3.45-.81-.69-1.37-1.76-2.22-2.29-.37-.23-.56-.67-.9-.93-1-.8-2.16-1.52-3-2.5-.55-.63-1.21-1.16-1.73-1.76-.25-.28-.31-.74-.59-.96-.15-.12-.45-.08-.6-.17-.15-.09-.13-.33-.26-.43-.04-.03-.23.09-.29.07-.11-.05-.08-.24-.18-.3-.17-.09-.47-.08-.62-.2-.25-.21-.27-.71-.55-.9-.1-.07-.31.03-.37-.07-.21-.33-.25-.43-.63-.5-.6-.1-1.03-.24-1.46-.5-.3.15-.6.3-.98.56-.38.18-.45-.11-1.14.56.37.05.25.17.08.66.52-.1.24.46.4.66.15.19.57.13.8.23.64.29,1.04.87,1.51,1.4.32.36.89.51,1.31.8.55.38.98,1.02,1.43,1.53.25.28.28.65.4.93.09.2.48.22.55.37.03.06-.14.33-.11.36,0,0,.22-.13.25-.13.07,0,.06.13.1.17.29.23.56.56.86.87.52.54,1.3.83,1.82,1.36.28.29.45.7.75.96.15.14.49.09.64.23.13.12.16.34.28.46,1.05,1.11,2.03,2.2,3.18,3.06.03-.1-.23-.06,0-.27.22.44.82.63,1.14.8.3.16.35.6.65.53.26-.06,0-.22.21-.2.35.24.71.44.96.77Z"/>
      <path class="cls-1" d="M2.07,43.88c.4.06.2.45.34.66.12.2.45.26.64.41.51.41.85.99,1.24,1.56.27.38.72.65,1.07,1,.45.45.82,1.09,1.21,1.63.21.3.26.61.37.87.08.18.4.3.46.44.03.06-.09.24-.06.28,0,0,.17-.06.19-.05.06.02.05.12.09.16.24.26.48.59.74.92.45.57,1.1.99,1.55,1.55.25.3.42.68.68.97.13.15.39.18.53.33.11.13.16.31.27.45.93,1.14,1.83,2.26,2.84,3.2.01-.08-.19-.09-.02-.22.22.41.72.68,1,.89.26.19.35.57.58.57.2,0-.03-.18.15-.12.31.27.62.49.86.81.1.12.25-.27.4-.25.08.02.03.26.19.13.17-.56-.14-.8-.34-1.24-.53-1.14-1.25-2.34-2.16-3.28-.71-.73-1.25-1.73-1.96-2.35-.31-.27-.5-.67-.78-.96-.85-.87-1.82-1.73-2.55-2.73-.47-.65-1.02-1.24-1.47-1.86-.21-.29-.28-.69-.51-.94-.12-.13-.36-.17-.48-.28-.12-.11-.12-.3-.22-.42-.03-.04-.18.02-.23-.02-.09-.07-.07-.22-.16-.29-.14-.12-.37-.18-.49-.32-.21-.24-.24-.65-.46-.88-.08-.08-.24-.06-.29-.15-.17-.33-.21-.43-.51-.58-.48-.24-.81-.47-1.16-.8-.23.04-.46.09-.75.21-.29.05-.36-.21-.88.16.3.14.2.21.08.57Z"/>
      <path class="cls-1" d="M5.38,13.1c.58.54.45,1.18.72,1.78.24.56.73,1.02,1.05,1.53.88,1.42,1.59,3,2.39,4.6.53,1.09,1.31,2.11,1.97,3.21.85,1.41,1.68,3.13,2.49,4.64.46.84.67,1.53.96,2.2.2.47.73,1.03.9,1.37.07.15-.02.4.04.51,0,0,.22.04.26.08.1.11.14.3.21.43.47.8,1.01,1.71,1.57,2.64.96,1.63,2.18,3.13,3.16,4.72.54.86,1.01,1.8,1.57,2.63.28.43.71.76,1,1.19.24.36.42.79.67,1.16,2.1,3.22,4.17,6.3,6.39,9.11-.03-.15-.36-.36-.17-.46.6,1.02,1.59,2.03,2.17,2.69.55.63.93,1.44,1.31,1.66.33.19-.16-.38.16-.11.68.81,1.34,1.54,1.94,2.38.24.32.23-.29.5-.11.14.11.21.53.4.42-.08-.93-.75-1.69-1.37-2.75-1.59-2.72-3.52-5.76-5.53-8.53-1.57-2.13-2.99-4.67-4.46-6.62-.65-.85-1.14-1.85-1.74-2.72-1.8-2.62-3.72-5.35-5.29-8.15-1.03-1.82-2.13-3.62-3.07-5.37-.44-.83-.72-1.73-1.17-2.49-.24-.41-.6-.73-.82-1.08-.22-.36-.3-.76-.51-1.13-.07-.11-.25-.14-.33-.27-.16-.23-.2-.54-.35-.78-.25-.4-.62-.77-.84-1.18-.39-.72-.61-1.64-1.02-2.35-.15-.26-.37-.37-.48-.62-.37-.88-.47-1.13-.95-1.77-.77-1.01-1.32-1.84-1.92-2.91-.31-.14-.61-.29-.96-.33-.39-.19-.58-.83-1.16-.57.46.61.36.67.32,1.31Z"/>
      <path class="cls-1" d="M39.67,34.04c.49.99.75,2.18,1.28,3.05.23.38.31.85.52,1.24.61,1.17,1.35,2.36,1.82,3.61.31.81.71,1.59,1,2.36.14.36.12.79.29,1.11.09.17.31.29.41.44.1.15.05.35.13.5.03.05.18.03.22.09.07.1.02.25.09.35.11.16.33.3.42.47.15.31.1.74.27,1.04.06.11.23.13.26.24.11.38.12.5.39.74.42.39.71.71.99,1.15.24.02.48.05.79,0,.3.03.31.32.91.09-.27-.23-.16-.28.04-.61-.39-.17-.11-.51-.2-.77-.08-.24-.39-.39-.55-.6-.43-.57-.63-1.26-.9-1.95-.18-.47-.57-.87-.84-1.33-.34-.59-.57-1.36-.82-2.02-.14-.37-.11-.7-.16-1-.04-.21-.32-.43-.35-.59-.01-.07.15-.21.13-.26,0,0-.18,0-.2,0-.05-.04-.02-.14-.05-.19-.18-.34-.33-.75-.5-1.17-.3-.72-.83-1.36-1.13-2.07-.16-.39-.23-.83-.41-1.2-.09-.19-.34-.31-.43-.51-.07-.17-.07-.37-.14-.54-.61-1.47-1.17-2.9-1.88-4.2-.03.08.16.16-.04.23-.1-.49-.51-.94-.72-1.25-.2-.29-.17-.7-.4-.78-.2-.07-.03.19-.18.07-.22-.38-.45-.72-.59-1.13-.06-.15-.32.18-.46.11-.07-.05.05-.27-.15-.19-.33.51-.1.87-.03,1.39.18,1.34.53,2.82,1.16,4.09Z"/>
      <path class="cls-1" d="M57.8,17.51c.11.88.07,1.8.16,2.68.28,2.63.73,5.36.96,8.02.15,1.73.44,3.46.63,5.1.1.77.03,1.56.17,2.29.08.39.29.74.38,1.07.09.34.03.68.1,1.02.02.11.19.17.22.29.07.22,0,.48.07.71.1.38.32.76.41,1.14.15.67.09,1.45.26,2.12.07.24.23.37.27.6.12.78.15,1.01.44,1.61.45.96.79,1.72,1.13,2.67.26.16.52.31.85.38.33.2.36.75.98.58-.3-.55-.19-.59,0-1.11-.43-.5-.15-1.01-.27-1.52-.11-.47-.43-.92-.61-1.38-.48-1.27-.69-2.66-.94-4.09-.19-.97-.54-1.94-.79-2.95-.31-1.3-.45-2.86-.61-4.24-.09-.77,0-1.36-.01-1.95,0-.41-.24-1-.25-1.31,0-.14.19-.29.18-.4,0,0-.18-.1-.2-.14-.05-.11,0-.27-.01-.39-.12-.74-.18-1.6-.26-2.48-.15-1.53-.5-3.06-.62-4.58-.06-.83,0-1.68-.08-2.5-.04-.42-.24-.82-.27-1.25-.02-.36.04-.73.02-1.09-.16-3.13-.23-6.16-.47-9.08-.06.11.09.41-.11.39.07-.97-.17-2.11-.26-2.82-.09-.68.07-1.4-.11-1.73-.16-.28-.09.33-.19,0-.08-.86-.18-1.67-.17-2.51,0-.33-.36.08-.47-.17-.05-.14.14-.46-.07-.47-.49.66-.39,1.49-.5,2.5-.29,2.59-.45,5.57-.26,8.4.14,2.19.03,4.6.3,6.61Z"/>
      <path class="cls-1" d="M76.18,36.86c.06.25-.05.51-.02.77.09.75.29,1.55.22,2.31-.05.49.02.99-.03,1.46-.02.22-.21.44-.18.65.02.11.17.22.2.32.03.1-.09.19-.08.29,0,.03.15.06.17.1.03.07-.08.13-.06.2.04.11.18.23.19.34.02.19-.21.41-.17.6.01.07.16.12.14.19-.06.22-.09.29.06.48.23.3.37.54.44.83.21.07.42.13.72.18.26.08.16.24.8.25-.15-.18-.04-.18.28-.31-.29-.18.11-.29.13-.45.02-.14-.2-.29-.26-.44-.16-.39-.07-.8-.04-1.22.02-.29-.17-.59-.23-.89-.08-.39.03-.83.06-1.24.02-.22.18-.39.25-.55.05-.12-.12-.3-.08-.39.01-.04.22-.07.22-.11,0,0-.17-.04-.18-.05-.03-.03.04-.08.03-.11-.02-.22,0-.47.01-.72.01-.44-.21-.9-.2-1.34,0-.24.12-.48.11-.72,0-.12-.18-.24-.19-.37,0-.1.09-.21.09-.31.03-.9.09-1.77-.03-2.62-.06.03.08.12-.13.11.11-.28-.09-.61-.15-.82-.06-.2.12-.4-.05-.5-.15-.09-.1.09-.19,0-.05-.25-.12-.48-.09-.72,0-.09-.36.01-.47-.06-.04-.04.15-.13-.06-.14-.51.17-.44.42-.59.7-.38.73-.64,1.58-.58,2.39.05.63-.19,1.31-.05,1.89Z"/>
      <path class="cls-1" d="M91.16,51.55c.07-.64.18-.61.64-.95-.07-.67.45-.95.66-1.46.19-.47.16-1.04.27-1.54.32-1.36.9-2.69,1.45-4.08.37-.95.56-2,.88-3.02.41-1.31,1.08-2.77,1.62-4.1.3-.74.67-1.23.95-1.76.2-.38.27-1.02.42-1.31.06-.12.31-.18.35-.28,0,0-.11-.18-.11-.22.01-.12.13-.24.18-.36.26-.73.61-1.55.95-2.38.59-1.46.98-3.03,1.58-4.48.33-.79.77-1.54,1.07-2.33.16-.4.15-.86.32-1.27.14-.34.36-.65.51-1,1.27-2.96,2.53-5.78,3.61-8.58-.1.08-.09.42-.27.31.49-.86.78-2.02,1.02-2.72.22-.67.69-1.26.66-1.64-.02-.33-.23.26-.17-.09.31-.83.58-1.61.97-2.39.14-.3-.36-.08-.35-.36.02-.15.33-.36.15-.47-.73.39-1.02,1.2-1.57,2.08-1.41,2.26-2.88,4.94-3.96,7.63-.84,2.08-2.01,4.25-2.67,6.21-.29.85-.75,1.68-1.06,2.52-.94,2.52-1.8,5.21-2.86,7.71-.69,1.63-1.28,3.31-1.92,4.86-.3.73-.76,1.4-1,2.11-.13.38-.12.79-.22,1.14-.1.34-.33.61-.44.95-.03.1.07.25.04.37-.06.23-.24.43-.31.66-.11.38-.12.83-.24,1.21-.22.66-.7,1.3-.91,1.97-.07.24,0,.45-.09.66-.33.74-.43.94-.52,1.61-.14,1.07-.3,1.9-.57,2.9.13.28.25.56.48.81.15.36-.13.84.47,1.07Z"/>
      <path class="cls-1" d="M107.83,47.06c-.22.23-.29.28-.31.57-.03.47-.09.81-.24,1.18.13.19.26.38.47.6.16.24-.05.36.49.72,0-.29.1-.22.47-.2-.11-.36.31-.28.44-.44.12-.15.05-.45.1-.64.16-.54.53-.95.88-1.41.23-.31.29-.76.47-1.14.23-.48.65-.94.98-1.38.18-.25.44-.35.63-.5.13-.11.12-.4.22-.49.04-.04.24.04.27,0,0,0-.11-.13-.11-.16,0-.06.09-.07.11-.11.14-.26.35-.53.55-.82.34-.5.49-1.14.83-1.64.18-.27.46-.48.63-.76.08-.14.03-.38.12-.52.08-.12.23-.19.31-.31.71-1.01,1.41-1.97,1.93-3.01-.08,0-.02.18-.19.05.3-.26.38-.74.48-1.02.09-.26.4-.39.33-.6-.06-.18-.16.05-.16-.11.14-.31.26-.62.47-.87.07-.1-.32-.18-.35-.32,0-.07.22-.06.05-.19-.56-.07-.68.24-1.02.49-.87.63-1.72,1.46-2.28,2.42-.43.74-1.14,1.39-1.46,2.13-.14.32-.43.56-.59.86-.49.91-.91,1.92-1.54,2.75-.41.54-.73,1.14-1.12,1.66-.18.24-.5.39-.64.64-.07.14-.02.35-.07.48-.05.13-.22.17-.29.29-.02.04.08.15.07.2-.03.09-.17.11-.2.2-.05.15-.02.36-.09.5-.13.23-.48.35-.6.6-.04.09.04.22-.02.29Z"/>
      <path class="cls-1" d="M146.85,30.67c.04-.1.35-.13.21-.29-.69-.03-1.09.45-1.71.86-1.62,1.05-3.38,2.37-4.87,3.82-1.15,1.13-2.62,2.12-3.63,3.21-.44.48-1.03.82-1.49,1.27-1.4,1.33-2.82,2.79-4.37,3.96-1.01.77-1.97,1.61-2.94,2.33-.46.34-1.02.53-1.43.88-.22.19-.34.48-.52.66-.19.18-.45.22-.64.39-.06.05-.03.21-.09.28-.12.13-.32.15-.45.27-.2.2-.36.5-.58.68-.39.31-.97.46-1.35.79-.14.12-.15.31-.29.39-.5.3-.65.37-.95.77-.47.64-.89,1.1-1.45,1.59,0,.27-.02.53.06.84-.01.34-.4.48-.04,1.01.29-.39.36-.3.82-.24.2-.49.68-.36,1.02-.57.31-.2.49-.61.75-.87.72-.72,1.62-1.28,2.51-1.91.61-.42,1.1-1.05,1.68-1.57.75-.67,1.73-1.3,2.57-1.92.46-.35.9-.49,1.29-.7.27-.15.52-.57.72-.69.09-.05.29.05.36,0,0,0-.03-.19-.02-.22.05-.08.18-.1.25-.16.42-.37.94-.76,1.45-1.18.9-.72,1.64-1.65,2.51-2.38.47-.4,1.03-.73,1.48-1.14.23-.21.35-.55.59-.76.2-.18.46-.29.67-.47,1.77-1.53,3.48-3,4.97-4.59-.1.01-.17.27-.3.1.6-.41,1.08-1.14,1.42-1.56.32-.4.83-.63.89-.93.05-.26-.25.09-.13-.14.42-.48.8-.96,1.27-1.37.18-.17-.29-.22-.23-.43Z"/>
    </g>
  </g>
</svg>