<?xml version="1.0" encoding="UTF-8"?>
<svg id="Layer_2" data-name="Layer 2" xmlns="http://www.w3.org/2000/svg" viewBox="0 0 204.86 127.67">
  <defs>
    <style>
      .cls-1 {
        fill: #fff;
      }
    </style>
  </defs>
  <g id="Layer_1-2" data-name="Layer 1">
    <g>
      <path class="cls-1" d="M17.68,124.41c8.73,0,24.98-10.46,37.43-19.52,11.98,10.84,25.51,22.78,40.81,22.78,16.87,0,31.87-6.72,42.62-13.4,10.92,1.72,30.16,3.16,45.04,3.16,10.11,0,18.21-.67,20.34-2.36.02-.01.03-.03.05-.05l.91.45v-38.08c0-43.05-25.75-59.81-45.46-68.63h0s-.62-.28-.62-.28l-2.56-1.13v.03c-2.42-1.02-4.95-2.01-7.68-3C136.99.19,125.26-1.01,113.68.85l-.36.06-.03.02s-.07,0-.11,0c-19.9,3.33-34.63,14.73-41.19,23.49-9.15,12.19-16.99,33.64-18.28,37.25-7.04,3.12-15.09,6.69-22.41,9.94h0l-.48.21-3.31,1.47h0c-6.56,2.92-12.18,5.42-15.41,6.87-.09.04-.19.09-.28.13l.02.04c-4.6,1.64-8.14,5.25-10.16,10.68-1.07,2.85-1.68,6.22-1.68,9.22,0,6.28,3.25,24.2,17.68,24.2ZM35.1,72.93c7-3.11,14.48-6.43,20.96-9.3,1.81-.59,7.12-1.95,14.87-.8,8.98,1.33,18.21,5.51,27.41,12.41,11.93,8.95,24.74,15.9,38.85,21.04-.08.06-.16.13-.24.19-.21.16-.43.33-.64.49-.11.08-.22.17-.33.25-.23.17-.47.35-.72.53-.11.08-.22.16-.34.24-.29.2-.58.41-.88.62-.09.06-.16.11-.25.17-.4.27-.81.56-1.24.84-.02.01-.05.03-.07.04-.4.26-.81.53-1.24.8-.14.09-.28.18-.42.27-.32.2-.64.4-.98.61-.18.11-.36.22-.53.32-.32.2-.65.39-.98.59-.19.11-.39.23-.59.35-.34.2-.69.4-1.04.6-.2.12-.41.23-.62.35-.38.22-.78.44-1.18.66-.19.11-.37.21-.57.31-.6.32-1.21.66-1.85.99-16.73,8.8-30.04,8.52-42.71-1.05-.85-.64-1.69-1.32-2.53-2.04-1.05-.9-2.09-1.79-3.12-2.66-.34-.29-.68-.57-1.02-.86-.68-.57-1.35-1.15-2.02-1.71-.42-.36-.83-.7-1.25-1.04-.58-.49-1.16-.97-1.73-1.45-.43-.36-.87-.71-1.3-1.07-.54-.45-1.08-.89-1.62-1.33-.43-.35-.86-.7-1.29-1.04-.52-.42-1.05-.84-1.57-1.26-.43-.34-.85-.67-1.28-1.01-.51-.4-1.02-.8-1.52-1.19-.42-.32-.84-.65-1.25-.96-.5-.38-1-.76-1.5-1.13-.41-.31-.82-.61-1.23-.91-.5-.37-1-.73-1.49-1.08-.4-.28-.8-.57-1.19-.85-.5-.36-1-.7-1.5-1.04-.38-.26-.76-.52-1.14-.77-.52-.35-1.04-.68-1.56-1.02-.35-.23-.7-.46-1.06-.68-.57-.36-1.14-.7-1.71-1.04-.3-.18-.59-.36-.88-.53-.86-.5-1.72-.98-2.57-1.44-.05-.03-.11-.05-.16-.08-.8-.43-1.6-.84-2.41-1.23-.29-.14-.57-.27-.85-.4-.57-.27-1.14-.54-1.71-.79-.33-.14-.66-.27-.99-.41-.41-.17-.83-.35-1.24-.51ZM108.65,4.69c-.13.11-.27.22-.4.33-.28.24-.57.47-.85.71-.26.21-.52.43-.78.65-.3.26-.61.51-.91.77-.23.2-.47.4-.71.6-.63.54-1.26,1.07-1.89,1.62-.19.17-.39.33-.58.5-.31.28-.63.55-.94.83-.23.2-.46.41-.69.61-.31.28-.62.55-.92.82-.23.2-.45.41-.68.61-.3.27-.59.54-.88.81-.23.21-.46.43-.69.64-.28.26-.56.52-.84.78-.23.22-.46.44-.69.66-.26.25-.52.5-.78.75-.45.43-.88.86-1.31,1.29-.19.19-.37.38-.56.57-.26.27-.52.53-.77.79-.19.2-.36.39-.55.58-.23.25-.46.5-.69.75-.17.19-.34.37-.5.56-.22.25-.44.5-.64.74-.14.17-.29.34-.43.51-.22.27-.42.53-.62.79-.1.13-.22.27-.32.4-.29.39-.56.76-.8,1.12-.32.49-.66,1.02-1.02,1.6-.1.16-.21.34-.31.51-.26.43-.52.86-.79,1.33-.13.22-.26.46-.39.68-.26.45-.52.9-.78,1.38-.13.24-.27.49-.41.74-.27.49-.54.98-.81,1.5-.14.26-.28.53-.42.8-.28.52-.55,1.04-.84,1.59-.14.28-.29.57-.44.85-.28.54-.56,1.09-.84,1.64-.15.29-.3.59-.44.88-.28.56-.56,1.12-.85,1.69-.14.29-.29.58-.43.88-.29.58-.57,1.16-.86,1.75-.14.28-.27.56-.41.84-.29.6-.58,1.19-.87,1.79-.13.28-.27.55-.4.83-.28.59-.56,1.17-.84,1.75-.13.29-.27.56-.4.84-.27.57-.53,1.13-.8,1.68-.14.29-.27.57-.41.86-.24.52-.49,1.03-.72,1.53-.12.26-.24.51-.36.77-.03.06-.06.12-.09.18-.2.44-.4.87-.6,1.29-.02.03-.03.07-.05.1-.15.33-.29.64-.44.95-.15.32-.29.64-.44.94,0,.02-.02.03-.02.05-.19.41-.38.82-.55,1.21-.09.2-.18.4-.27.59-.23.5-.45.98-.65,1.42,0,.01-.01.03-.02.04-1.89-.24-3.63-.33-5.22-.33-1.38,0-2.65.06-3.79.17-1.69.17-3.12.42-4.22.68.04-.11.1-.26.14-.38,2.57-6.83,9.42-23.97,16.97-34.04,6.12-8.15,18.84-17.47,34.46-21.38ZM147.6,6.97c3.4,1.24,6.49,2.47,9.44,3.75,0,0,0,0,0,0,.02.09.04.17.06.26.2.88.39,1.77.56,2.68.03.16.06.31.09.47.17.91.32,1.84.47,2.78.02.16.04.31.07.47.14.95.26,1.91.37,2.88.02.16.03.31.05.47.11.98.2,1.97.28,2.96.01.15.02.31.04.46.08,1.01.14,2.02.2,3.04.01.15.02.3.02.45.05,1.03.09,2.06.12,3.11,0,.14,0,.29.01.43.02,1.05.04,2.1.04,3.16v.41c0,1.07,0,2.13-.03,3.21,0,.13,0,.27,0,.4-.02,1.08-.05,2.16-.1,3.23,0,.12,0,.24-.01.36-.04,1.09-.1,2.18-.16,3.27,0,.11-.01.22-.02.33-.06,1.1-.13,2.19-.21,3.29,0,.1-.02.2-.02.3-.08,1.1-.17,2.2-.27,3.28,0,.1-.02.19-.03.29-.1,1.1-.2,2.19-.31,3.27,0,.08-.02.16-.03.25-.11,1.09-.23,2.17-.35,3.25,0,.07-.02.14-.03.22-.13,1.08-.26,2.15-.39,3.21,0,.06-.02.11-.02.17-.14,1.07-.28,2.13-.42,3.17,0,.05-.01.09-.02.14-.14,1.05-.3,2.09-.45,3.11,0,.03-.01.07-.02.1-.16,1.03-.31,2.04-.47,3.03,0,.03,0,.06-.01.08-.16,1-.32,1.98-.49,2.94,0,.01,0,.03,0,.04-.33,1.95-.66,3.81-.99,5.56,0,0,0,.01,0,.02-.67,3.59-1.32,6.73-1.87,9.27-.13.6-.25,1.17-.37,1.71-.14.62-.27,1.2-.39,1.72-.28,1.24-.51,2.18-.66,2.79-.06.26-.11.46-.15.6,0,.02,0,.02,0,.04-.03.1-.04.17-.05.18l-.04.18h0c-.57-.16-1.12-.34-1.69-.5-.81-.23-1.6-.47-2.4-.71-.61-.18-1.22-.35-1.82-.54-.63-.2-1.26-.39-1.88-.59-.02,0-.03-.01-.04-.01-.2-.07-.39-.14-.58-.2h0c-.49-.16-.97-.34-1.46-.51-.49-.17-.99-.34-1.48-.51-14.45-5.1-27.54-12.06-39.68-21.16-8.97-6.73-18-10.97-26.87-12.63.46-1.01.98-2.15,1.54-3.36.11-.24.22-.48.33-.72.01-.03.03-.06.04-.09.06-.15.14-.3.2-.45.19-.42.38-.82.58-1.25.06-.12.12-.25.17-.37.1-.2.19-.41.29-.61.27-.57.53-1.14.81-1.73.12-.26.25-.53.37-.8.26-.54.51-1.08.77-1.62.15-.31.3-.63.45-.95.24-.52.49-1.03.74-1.55.17-.35.33-.7.5-1.04.24-.49.48-.98.71-1.47.19-.38.37-.76.56-1.14.23-.46.45-.92.68-1.38.2-.4.39-.79.59-1.19.22-.44.44-.87.66-1.31.2-.4.4-.8.6-1.2.21-.42.43-.84.64-1.26.2-.39.4-.77.6-1.15.22-.41.43-.81.64-1.22.19-.37.39-.73.57-1.09.21-.4.42-.78.63-1.17.18-.33.36-.67.54-.99.22-.39.43-.75.64-1.12.16-.29.33-.59.49-.86.22-.39.44-.74.65-1.1.13-.22.27-.46.41-.68.34-.55.67-1.07.98-1.54.19-.29.4-.59.63-.9.12-.16.26-.34.39-.5.12-.16.24-.31.37-.47.2-.25.43-.52.66-.79.08-.09.14-.17.22-.26,3.76-4.34,10.39-10.41,19.24-17.62.02-.02.04-.04.07-.06.62-.5,1.26-1.02,1.9-1.53.15-.12.29-.24.44-.36,11-1.69,22.14-.53,33.13,3.46ZM160.17,12.14c18.72,8.73,41.93,25.17,41.93,65.25v33.7c-.73-.32-1.66-.72-2.75-1.16-5.5-2.22-15.44-5.69-28.25-7.83-5.81-.97-11.17-2.08-16.32-3.36-.37-.09-.74-.17-1.1-.27l.05-.23s.01-.05.02-.07c.04-.15.11-.44.22-.87,0,0,0,0,0-.02.06-.23.12-.5.19-.79,0-.03.01-.05.02-.08.06-.27.14-.59.22-.91.02-.08.03-.14.05-.22.07-.31.16-.67.24-1.03.03-.12.05-.22.08-.34.02-.07.03-.13.05-.21.07-.29.14-.62.21-.94.03-.13.06-.26.09-.4,0-.02,0-.04.01-.06.09-.39.18-.82.28-1.24,0-.02,0-.03.01-.05.04-.18.07-.34.11-.53.09-.42.19-.87.29-1.33.05-.23.1-.46.15-.69.1-.47.2-.96.3-1.45.05-.25.1-.5.16-.75.1-.49.2-1,.3-1.52.06-.29.12-.58.18-.88.1-.51.2-1.04.3-1.58.06-.32.12-.65.18-.98.1-.54.2-1.09.3-1.65.07-.35.13-.7.19-1.06.1-.56.2-1.13.3-1.7.07-.39.13-.77.2-1.16.1-.57.19-1.16.29-1.75.07-.41.13-.82.2-1.23.1-.6.19-1.2.28-1.82.07-.43.13-.85.2-1.29.09-.61.18-1.23.27-1.86.06-.45.13-.9.19-1.35.09-.63.17-1.25.26-1.89.06-.47.12-.94.18-1.41.08-.63.16-1.27.24-1.91.06-.49.12-.99.17-1.48.07-.64.14-1.27.21-1.92.05-.51.11-1.02.16-1.53.07-.64.13-1.29.19-1.93.05-.52.1-1.05.14-1.57.06-.65.11-1.3.16-1.95.04-.53.08-1.07.12-1.61.05-.65.09-1.3.13-1.95.03-.55.06-1.09.1-1.63.04-.65.07-1.3.1-1.95.03-.56.05-1.11.07-1.67.02-.64.05-1.28.06-1.92.02-.57.03-1.13.04-1.7.01-.63.02-1.26.03-1.9,0-.57,0-1.14,0-1.7,0-.63,0-1.26-.01-1.88,0-.57-.02-1.14-.04-1.71-.02-.62-.03-1.23-.05-1.84-.02-.58-.05-1.15-.08-1.72-.03-.6-.06-1.2-.1-1.8-.04-.58-.08-1.15-.13-1.73-.04-.58-.09-1.17-.14-1.74-.05-.58-.12-1.15-.18-1.73-.06-.56-.12-1.13-.19-1.68-.07-.58-.16-1.14-.24-1.71-.08-.54-.15-1.09-.24-1.63-.09-.57-.2-1.13-.3-1.69-.09-.52-.18-1.04-.29-1.56-.02-.08-.03-.16-.04-.24ZM141.97,112.05c6.95-4.69,11.62-8.96,13.11-10.39,4.93,1.2,10.05,2.26,15.58,3.17,14.73,2.46,25.79,6.82,30.15,8.72-7.48,2.08-39.95,1.16-58.84-1.5ZM31.45,74.55s0,0,.01,0c.35.12.71.26,1.06.38.42.15.84.29,1.26.45.44.17.88.36,1.32.53.42.17.83.34,1.25.52.45.2.89.41,1.34.62.41.19.81.37,1.22.58.45.22.9.46,1.36.7.4.21.81.41,1.21.63.46.25.93.52,1.39.78.4.23.8.45,1.2.69.47.28.95.58,1.42.87.4.24.79.48,1.19.73.48.31.97.63,1.46.96.39.26.78.51,1.18.77.5.34,1.01.7,1.51,1.04.39.27.77.53,1.16.81.52.37,1.05.76,1.57,1.14.38.28.76.55,1.14.83.53.39,1.07.81,1.61,1.22.39.29.77.58,1.16.88.56.43,1.13.88,1.7,1.33.38.29.74.58,1.12.88.58.46,1.17.94,1.76,1.42.38.31.75.6,1.13.91.61.5,1.24,1.02,1.86,1.53.36.3.72.59,1.09.89.65.54,1.32,1.1,1.98,1.66.35.29.7.58,1.05.88.73.61,1.47,1.24,2.21,1.87.3.25.59.5.89.76,1.05.89,2.11,1.8,3.19,2.72.83.71,1.66,1.37,2.49,2.01.09.07.19.14.28.21.8.6,1.6,1.15,2.4,1.68.13.09.26.17.39.26.79.51,1.59.98,2.39,1.42.14.07.27.15.41.22.81.44,1.62.84,2.44,1.21.11.05.23.1.34.15.85.37,1.7.72,2.57,1.02.04.02.09.03.13.04.87.3,1.74.56,2.62.78.07.02.14.04.21.06.86.22,1.73.39,2.61.54.13.02.26.05.39.07.85.13,1.71.23,2.58.3.15.01.3.02.46.03.83.05,1.68.08,2.53.07.37,0,.74-.03,1.11-.04.6-.02,1.2-.05,1.8-.1.41-.04.81-.09,1.22-.14.58-.07,1.17-.15,1.76-.24.43-.07.85-.15,1.28-.24.59-.11,1.17-.24,1.76-.38.43-.1.87-.21,1.31-.33.6-.16,1.21-.34,1.82-.53.43-.13.86-.27,1.3-.41.64-.21,1.28-.46,1.93-.7.42-.16.83-.31,1.25-.48.72-.29,1.45-.61,2.18-.94.35-.16.7-.3,1.06-.47,1.09-.51,2.19-1.05,3.31-1.64.67-.35,1.32-.7,1.96-1.05.2-.11.4-.22.6-.33.42-.23.83-.46,1.23-.69.24-.13.46-.26.69-.39.36-.2.71-.41,1.05-.61.23-.13.45-.26.67-.4.32-.19.64-.39.95-.57.22-.13.43-.27.65-.4.08-.05.17-.1.25-.15.21-.13.42-.26.62-.39.21-.13.41-.26.61-.39.28-.18.55-.36.82-.53.19-.12.37-.24.56-.37.26-.18.52-.35.77-.52.17-.12.34-.24.51-.35.25-.17.49-.34.73-.51.15-.11.3-.22.45-.32.24-.18.48-.35.71-.52.13-.09.26-.19.38-.28.24-.19.48-.37.71-.55.1-.08.2-.16.3-.23.29-.23.57-.45.83-.67.03-.02.06-.05.09-.07.12-.1.23-.2.35-.3.54.19,1.08.36,1.63.54.57.19,1.15.38,1.73.56,2.23.71,4.51,1.38,6.81,2.01h0s1.29.36,1.29.36l.17.04c-2.45,2.19-7.38,6.31-14.08,10.54-.57.35-1.14.71-1.73,1.07-.58.35-1.16.7-1.76,1.04-10.21,5.91-23.67,11.41-38.38,11.41s-27.03-11.29-38.54-21.69c-.42-.38-.84-.76-1.26-1.13l-1.38-1.24c-2.39-2.15-4.86-4.38-7.31-6.47-.54-.47-1.09-.93-1.64-1.4-.17-.15-.35-.29-.52-.44-.38-.32-.76-.63-1.14-.94-.21-.17-.43-.34-.64-.51-.34-.28-.69-.56-1.04-.83-.23-.18-.46-.36-.69-.54-.34-.26-.67-.52-1.01-.77-.24-.18-.48-.36-.72-.54-.33-.24-.66-.49-1-.73-.25-.18-.5-.36-.75-.53-.33-.23-.66-.46-.99-.69-.25-.17-.5-.34-.76-.51-.34-.22-.67-.43-1.01-.65-.25-.16-.5-.32-.76-.48-.34-.21-.69-.41-1.04-.61-.25-.14-.49-.29-.74-.43-.37-.21-.74-.4-1.11-.6-.23-.12-.46-.24-.68-.36-.44-.22-.89-.43-1.33-.63-.16-.07-.32-.16-.48-.23-.61-.27-1.21-.52-1.82-.75-.16-.06-.33-.11-.49-.17-.45-.16-.9-.33-1.36-.47-.24-.08-.47-.14-.71-.2-.39-.11-.77-.22-1.15-.32-.26-.06-.52-.12-.78-.17-.37-.08-.73-.16-1.1-.22-.27-.05-.54-.08-.82-.12-.22-.03-.45-.08-.67-.1,3.21-1.43,6.97-3.1,10.98-4.88ZM12.84,82.84c1.15-.4,2.32-.65,3.54-.75.42-.03.85-.06,1.3-.06,9.86,0,19.26,6.94,27.95,14.44,2.43,2.07,4.88,4.28,7.26,6.43l.12.11c-16.37,11.87-29.2,18.65-35.34,18.65-12.18,0-14.92-15.88-14.92-21.44,0-1.27.14-4.62,1.51-8.26,1.3-3.49,3.8-7.49,8.57-9.14v.03Z"/>
      <g>
        <g>
          <polygon class="cls-1" points="137.16 69.54 138.19 70.29 129.85 76.11 132.85 66.4 133.88 67.15 134.78 65.91 131.39 63.44 130.49 64.68 131.29 65.26 127.7 76.92 129.76 78.41 139.75 71.42 140.55 72.01 141.45 70.76 138.06 68.29 137.16 69.54"/>
          <polygon class="cls-1" points="139.55 73.78 138.64 75.02 139.73 75.81 134.36 78.73 135.5 72.73 136.59 73.53 137.5 72.28 134.1 69.81 133.2 71.06 133.99 71.63 132.47 79.73 130.97 81.79 129.59 80.79 128.68 82.03 132.99 85.17 133.9 83.93 132.52 82.92 134.05 80.82 141.23 76.9 142.04 77.49 142.94 76.25 139.55 73.78"/>
        </g>
        <g>
          <path class="cls-1" d="M134.88,84.2l.53-.73-.26-.19.11-.15.7.51-.11.15-.26-.19-.53.73-.18-.13Z"/>
          <path class="cls-1" d="M135.43,84.59l.64-.88.27.19-.28.71.59-.48.27.19-.64.88-.16-.12.5-.69-.68.56-.17-.12.33-.82-.5.69-.16-.12Z"/>
        </g>
      </g>
    </g>
  </g>
</svg>