<?xml version="1.0" encoding="UTF-8"?>
<svg id="Layer_2" data-name="Layer 2" xmlns="http://www.w3.org/2000/svg" viewBox="0 0 157.72 187.57">
  <defs>
    <style>
      .cls-1 {
        fill: #fff;
      }
    </style>
  </defs>
  <g id="Layer_1-2" data-name="Layer 1">
    <g>
      <path class="cls-1" d="M8.95,175.63h17.91v11.94h104v-11.94h17.91v-15.84c1.31-2.3,8.95-16.54,8.95-36.16,0-32.55-20.6-91.9-20.96-92.93-.3-.88-6.44-18.76-19.1-18.76h-6.13c-1.95-4.44-5.81-9.85-7.9-10.56l-.03-.04h-.05c-.09-.03-.23-.18-.31-.19-.2-.02-.39.02-.58.08-1.97-.22-11.51-1.22-23.8-1.22s-21.82.99-23.76,1.2c-.19-.06-.39-.09-.6-.07-2.04.21-6.24,6.1-8.31,10.81h-6.13c-12.7,0-18.85,18-19.1,18.75-.21.6-20.96,60.27-20.96,92.94,0,19.62,7.64,33.86,8.95,36.16v15.84ZM95.05,56.71v-22.62c0-.46-.26-.85-.63-1.07,11.12-3.77,16.52-10.9,17.25-11.93,1.39-1.41,1.65-3.65.79-6.63h5.2c10.89,0,16.66,16.88,16.71,17.04v.02c.09.23,3.19,9.15,6.98,21.87-.06.2-.08.4-.03.62,4.81,21.45-.88,36.17-.94,36.32-.26.65.06,1.38.71,1.64.15.06.31.09.46.09.5,0,.97-.3,1.17-.79.18-.46,3.44-8.84,3.04-22.26,4.86,18.23,9.44,39.43,9.44,54.62,0,17.95-6.81,31.57-8.43,34.55h-15.91v-16.31c.64-1.04,3.56-5.04,10.68-5.04.7,0,1.26-.57,1.26-1.26s-.56-1.26-1.26-1.26c-5.31,0-8.68,1.94-10.68,3.73v-8.04c1.1-1.49,6.39-8.1,13.66-8.1.7,0,1.26-.56,1.26-1.26s-.57-1.26-1.26-1.26c-6.22,0-11.01,3.89-13.66,6.7V49.01c0-.69-.57-1.26-1.26-1.26s-1.26.57-1.26,1.26v106.69c-8.46-11.47-13.51-23.04-15.4-35.25l-.17-1.07H44.92l-.14,1.1c-1.46,11.69-6.64,23.53-15.39,35.25V49.01c0-.69-.57-1.26-1.26-1.26s-1.26.57-1.26,1.26v77.08c-2.65-2.81-7.44-6.7-13.66-6.7-.7,0-1.26.57-1.26,1.26s.56,1.26,1.26,1.26c7.27,0,12.56,6.6,13.66,8.1v8.04c-1.99-1.79-5.37-3.73-10.68-3.73-.7,0-1.26.56-1.26,1.26s.56,1.26,1.26,1.26c7.12,0,10.04,4.01,10.68,5.04v16.31h-15.91c-1.62-2.99-8.43-16.61-8.43-34.55,0-15.2,4.58-36.41,9.45-54.65-.41,13.43,2.86,21.82,3.04,22.28.2.49.67.8,1.17.8.16,0,.31-.03.47-.09.65-.26.96-.99.7-1.64-.06-.15-5.77-14.81-.94-36.32.05-.22.02-.43-.04-.63,3.79-12.72,6.89-21.64,6.97-21.88.06-.17,5.81-17.04,16.71-17.04h5.21c-.86,2.99-.61,5.22.79,6.63.73.99,6.17,8.03,17.42,11.83-.47.18-.8.63-.8,1.17v22.62M48.96,11.94c.98-2.02,2.23-4,3.37-5.52.02.14.07.28.1.42,0,.04.02.08.03.12.06.25.12.49.21.74.1.3.24.58.38.87.02.03.03.06.05.09.6,1.14,1.48,2.23,2.48,3.29h-.07l1.31,1.26.8.77c.17.16.33.33.51.49.41.39.83.79,1.26,1.2,1.15,1.08,2.53,2.15,4.02,3.23.82.59,1.66,1.19,2.53,1.81.32.22.65.45.97.68.08.05.15.11.23.16.24.17.48.34.72.51.15.11.31.22.46.33.17.12.33.24.5.36.18.13.35.27.53.4.14.1.28.21.41.31.2.15.4.3.6.46.11.08.22.17.33.25.21.17.42.33.63.51.09.07.18.14.27.22.23.19.44.37.66.56.06.06.13.11.2.17.23.21.46.41.69.62.04.04.09.08.13.12.24.22.47.45.7.68.02.02.05.05.07.07.24.25.47.49.7.74,0,0,0,0,.01.02,1.3,1.46,2.17,3.02,2.56,4.64.02.1.08.19.09.29-20.15-.59-29.26-13.12-29.35-13.24l-.16-.19c-.57-.54-.74-1.53-.5-2.93.11-.63.3-1.3.52-1.97.14-.42.3-.84.47-1.26.18-.42.36-.84.57-1.26ZM105.22,7.14c.07-.25.14-.5.17-.75,1.14,1.53,2.39,3.52,3.37,5.54.21.42.39.84.57,1.26.18.43.33.85.47,1.26.23.69.42,1.37.53,2.01.22,1.38.05,2.36-.51,2.89l-.17.2c-.09.14-9.21,13.03-29.41,13.27.91-4.56,6.5-8.45,11.48-11.92,2.59-1.8,5.03-3.5,6.83-5.26.41-.4.81-.8,1.21-1.18.1-.1.19-.19.29-.29.03-.03.05-.05.08-.08l.08-.08.83-.82,1.27-1.26h-.09s.08-.09.12-.13c.26-.3.51-.59.75-.88.11-.13.21-.26.31-.39.14-.19.28-.38.42-.56.11-.15.21-.29.31-.44.17-.26.33-.52.46-.78.1-.18.17-.35.25-.53.05-.12.11-.24.15-.37.08-.19.15-.38.2-.57.02-.05.02-.1.03-.15ZM92.52,59.23v24.34h-1.72c-.7,0-1.26.57-1.26,1.26s.56,1.26,1.26,1.26h1.72v4.71c0,.7.56,1.26,1.26,1.26s1.26-.56,1.26-1.26v-4.71h1.72c.7,0,1.26-.56,1.26-1.26s-.56-1.26-1.26-1.26h-1.72v-24.34M62.68,59.23v24.34h-1.72c-.7,0-1.26.57-1.26,1.26s.56,1.26,1.26,1.26h1.72v4.71c0,.7.56,1.26,1.26,1.26s1.26-.56,1.26-1.26v-4.71h1.72c.7,0,1.26-.56,1.26-1.26s-.56-1.26-1.26-1.26h-1.72v-24.34M92.52,34.09v22.62h-27.32v-22.62c0-.26-.1-.49-.24-.7,3.64,1.09,7.84,1.82,12.64,1.93h0s1.09.02,1.09.02h.15s.01,0,.02,0h.05c.27,0,.54,0,.81,0,.12,0,.24,0,.36,0h.05c4.74-.04,8.9-.72,12.51-1.77-.07.16-.11.33-.11.51ZM76.47,26.01c-.27-.3-.55-.59-.84-.88-.13-.13-.27-.27-.4-.4-.4-.38-.81-.76-1.23-1.13-.09-.08-.19-.16-.29-.24-.37-.32-.75-.63-1.14-.94-.14-.11-.27-.22-.41-.32-.46-.36-.93-.72-1.4-1.07-.06-.05-.12-.09-.18-.13-.45-.33-.9-.66-1.35-.98-.14-.1-.28-.2-.43-.31-.47-.33-.93-.66-1.39-.98-.55-.39-1.09-.77-1.62-1.14-.16-.11-.31-.22-.46-.33-.37-.27-.74-.54-1.1-.8-.19-.14-.38-.29-.57-.43-.3-.23-.6-.46-.89-.69-.19-.15-.38-.31-.56-.46-.13-.11-.26-.21-.38-.32h34.3c-.13.11-.28.23-.42.35-.19.17-.39.33-.59.49-.27.22-.55.44-.84.66-.24.18-.48.36-.73.55-.21.16-.43.31-.65.47-.85.61-1.73,1.23-2.64,1.86-4.07,2.82-8.49,5.93-10.9,9.66-.01.02-.03.04-.04.06-.15.24-.33.48-.47.73-.08-.15-.18-.28-.27-.43-.15-.26-.31-.52-.48-.77-.12-.18-.24-.36-.37-.55-.29-.39-.59-.77-.92-1.15-.11-.13-.24-.26-.36-.4ZM102.18,3.71s0,0,0,0c.02.04.04.08.07.11,0,.02.02.03.03.05.43.71.64,1.38.59,2.09,0,.02,0,.03,0,.05-.01.13-.03.25-.06.39-.02.07-.03.14-.05.21-.01.05-.03.09-.04.14-.43,1.32-1.69,2.88-3.99,5.2h-39.57c-.97-.95-1.76-1.77-2.39-2.5-.05-.05-.09-.11-.14-.16-.09-.11-.18-.22-.27-.33-1.32-1.64-1.73-2.82-1.41-3.98,0-.01,0-.03,0-.04.03-.1.07-.2.11-.3.02-.06.05-.12.08-.18.04-.08.08-.16.12-.24.05-.09.1-.18.15-.27.04-.06.08-.13.12-.19.01-.02.02-.04.04-.06h0c2.28-.25,11.47-1.17,23.28-1.17s21.01.93,23.32,1.19ZM146.25,173.11h-15.38v-12.4h15.38v12.4ZM128.34,175.63v9.42H29.38v-12.4h98.95v2.98ZM117.66,160.7h10.68v9.42H29.38v-9.42h10.68c.7,0,1.26-.56,1.26-1.26s-.56-1.26-1.26-1.26h-9.36c9.17-12.01,14.7-24.2,16.44-36.28h63.48c2.13,12.58,7.53,24.48,16.43,36.28h-9.38c-.7,0-1.26.57-1.26,1.26s.57,1.26,1.26,1.26ZM11.48,160.7h15.39v12.4h-15.39v-12.4Z"/>
      <g>
        <g>
          <polygon class="cls-1" points="110.24 58.4 111.52 58.4 108.21 68.01 104.92 58.4 106.19 58.4 106.19 56.86 102 56.86 102 58.4 102.99 58.4 106.95 69.93 109.49 69.93 113.45 58.4 114.44 58.4 114.44 56.86 110.24 56.86 110.24 58.4"/>
          <polygon class="cls-1" points="114.67 60.42 114.67 61.95 116.01 61.95 113.39 67.47 110.78 61.95 112.14 61.95 112.14 60.42 107.94 60.42 107.94 61.95 108.92 61.95 112.45 69.39 112.45 71.95 110.75 71.95 110.75 73.48 116.08 73.48 116.08 71.95 114.37 71.95 114.37 69.34 117.87 61.95 118.87 61.95 118.87 60.42 114.67 60.42"/>
        </g>
        <g>
          <path class="cls-1" d="M117.03,71.58v-.9h-.32v-.18h.86v.18h-.32v.9h-.22Z"/>
          <path class="cls-1" d="M117.71,71.58v-1.08h.33l.2.74.19-.74h.33v1.08h-.2v-.85l-.22.85h-.21l-.21-.85v.85h-.2Z"/>
        </g>
      </g>
    </g>
  </g>
</svg>