<?xml version="1.0" encoding="UTF-8"?>
<svg id="Layer_2" data-name="Layer 2" xmlns="http://www.w3.org/2000/svg" viewBox="0 0 197.29 182.95">
  <defs>
    <style>
      .cls-1 {
        fill: #fff;
      }
    </style>
  </defs>
  <g id="Layer_1-2" data-name="Layer 1">
    <g>
      <g>
        <path class="cls-1" d="M104.71,171.08c-9.84,0-19.39-1.93-28.38-5.73-8.68-3.67-16.48-8.93-23.18-15.62-6.69-6.69-11.95-14.49-15.62-23.18-3.8-8.99-5.73-18.54-5.73-28.38s1.93-19.39,5.73-28.38c3.67-8.68,8.93-16.48,15.62-23.18,6.69-6.69,14.49-11.95,23.18-15.62,8.99-3.8,18.54-5.73,28.38-5.73s19.39,1.93,28.38,5.73c8.68,3.67,16.48,8.93,23.18,15.62,6.69,6.69,11.95,14.49,15.62,23.18,3.8,8.99,5.73,18.54,5.73,28.38s-1.93,19.39-5.73,28.38c-3.67,8.68-8.93,16.48-15.62,23.18-6.69,6.69-14.49,11.95-23.18,15.62-8.99,3.8-18.54,5.73-28.38,5.73ZM104.71,33.33c-8.76,0-17.25,1.71-25.24,5.09-7.72,3.27-14.66,7.94-20.61,13.9-5.96,5.96-10.63,12.89-13.9,20.61-3.38,7.99-5.09,16.48-5.09,25.24s1.71,17.25,5.09,25.24c3.27,7.72,7.94,14.66,13.9,20.61,5.96,5.96,12.89,10.63,20.61,13.9,7.99,3.38,16.48,5.09,25.24,5.09s17.25-1.71,25.24-5.09c7.72-3.27,14.66-7.94,20.61-13.9,5.96-5.96,10.63-12.89,13.9-20.61,3.38-7.99,5.09-16.48,5.09-25.24s-1.71-17.25-5.09-25.24c-3.27-7.72-7.94-14.66-13.9-20.61-5.96-5.96-12.89-10.63-20.61-13.9-7.99-3.38-16.48-5.09-25.24-5.09Z"/>
        <path class="cls-1" d="M151.31,152.92c-1.94,0-3.65-1.4-3.98-3.38-1.64-9.98-6.81-19.12-14.54-25.74-3.83-3.28-8.16-5.84-12.86-7.62-4.86-1.83-9.99-2.76-15.23-2.76s-10.37.93-15.23,2.76c-4.7,1.77-9.02,4.33-12.86,7.62-7.73,6.62-12.89,15.76-14.54,25.74-.36,2.2-2.44,3.69-4.64,3.33-2.2-.36-3.69-2.44-3.33-4.64,1.95-11.85,8.08-22.71,17.25-30.56,4.55-3.89,9.68-6.94,15.26-9.04,5.77-2.18,11.86-3.28,18.08-3.28s12.31,1.1,18.08,3.28c5.58,2.1,10.71,5.14,15.26,9.04,9.17,7.86,15.3,18.71,17.25,30.56.36,2.2-1.13,4.28-3.33,4.64-.22.04-.44.05-.66.05Z"/>
        <path class="cls-1" d="M104.71,113.41c-7.02,0-13.61-2.73-18.57-7.69-4.96-4.96-7.69-11.56-7.69-18.57s2.73-13.61,7.69-18.57c4.96-4.96,11.56-7.69,18.57-7.69s13.61,2.73,18.57,7.69c4.96,4.96,7.69,11.56,7.69,18.57s-2.73,13.61-7.69,18.57c-4.96,4.96-11.56,7.69-18.57,7.69ZM104.71,68.95c-10.03,0-18.2,8.16-18.2,18.2s8.16,18.2,18.2,18.2,18.2-8.16,18.2-18.2-8.16-18.2-18.2-18.2Z"/>
      </g>
      <path class="cls-1" d="M172.47,47.88c-1.48,0-2.83-.8-3.54-2.1l-5.05-9.23-9.23-5.05c-1.29-.71-2.1-2.07-2.1-3.54s.8-2.83,2.1-3.54l9.23-5.05,5.05-9.23c.71-1.29,2.07-2.1,3.54-2.1s2.83.8,3.54,2.1l5.05,9.23,9.23,5.05c1.29.71,2.1,2.07,2.1,3.54s-.8,2.83-2.1,3.54l-9.23,5.05-5.05,9.23c-.71,1.29-2.07,2.1-3.54,2.1ZM165,27.97l3.79,2.07c.68.37,1.23.93,1.6,1.6l2.07,3.79,2.07-3.79c.37-.68.93-1.23,1.6-1.6l3.79-2.07-3.79-2.07c-.68-.37-1.23-.93-1.6-1.6l-2.07-3.79-2.07,3.79c-.37.68-.93,1.23-1.6,1.6l-3.79,2.07Z"/>
      <path class="cls-1" d="M19.92,167.63c-1.48,0-2.83-.8-3.54-2.1l-5.05-9.23-9.23-5.05C.8,150.55,0,149.19,0,147.72,0,146.24.8,144.88,2.1,144.18l9.23-5.05,5.05-9.23c.71-1.29,2.07-2.1,3.54-2.1s2.83.8,3.54,2.1l5.05,9.23,9.23,5.05c1.29.71,2.1,2.07,2.1,3.54,0,1.48-.8,2.83-2.1,3.54l-9.23,5.05-5.05,9.23c-.71,1.29-2.07,2.1-3.54,2.1ZM12.45,147.72l3.79,2.07c.68.37,1.23.93,1.6,1.6l2.07,3.79,2.07-3.79c.37-.68.93-1.23,1.6-1.6l3.79-2.07-3.79-2.07c-.68-.37-1.23-.93-1.6-1.6l-2.07-3.79-2.07,3.79c-.37.68-.93,1.23-1.6,1.6l-3.79,2.07Z"/>
      <path class="cls-1" d="M39.31,39.52c-.19,0-.38-.01-.56-.04-1.46-.21-2.69-1.19-3.21-2.57l-3.71-9.84-8.43-6.29c-1.18-.88-1.79-2.34-1.58-3.8.21-1.46,1.19-2.69,2.57-3.21l9.84-3.71,6.29-8.43c.88-1.18,2.34-1.79,3.8-1.58,1.46.21,2.69,1.19,3.21,2.57l3.71,9.84,8.43,6.29c1.18.88,1.79,2.34,1.58,3.8-.21,1.46-1.19,2.69-2.57,3.21l-9.84,3.71-6.29,8.43c-.77,1.03-1.97,1.62-3.24,1.62ZM34.13,18.72l3.46,2.58c.62.46,1.09,1.09,1.36,1.81l1.52,4.04,2.58-3.46c.46-.62,1.09-1.09,1.81-1.36l4.04-1.52-3.46-2.58c-.62-.46-1.09-1.09-1.36-1.81l-1.52-4.04-2.58,3.46c-.46.62-1.09,1.09-1.81,1.36l-4.04,1.52Z"/>
      <path class="cls-1" d="M177.37,182.95c-1.48,0-2.83-.8-3.54-2.1l-5.05-9.23-9.23-5.05c-1.29-.71-2.1-2.07-2.1-3.54s.8-2.83,2.1-3.54l9.23-5.05,5.05-9.23c.71-1.29,2.07-2.1,3.54-2.1s2.83.8,3.54,2.1l5.05,9.23,9.23,5.05c1.29.71,2.1,2.07,2.1,3.54s-.8,2.83-2.1,3.54l-9.23,5.05-5.05,9.23c-.71,1.29-2.07,2.1-3.54,2.1ZM169.9,163.03l3.79,2.07c.68.37,1.23.93,1.6,1.6l2.07,3.79,2.07-3.79c.37-.68.93-1.23,1.6-1.6l3.79-2.07-3.79-2.07c-.68-.37-1.23-.93-1.6-1.6l-2.07-3.79-2.07,3.79c-.37.68-.93,1.23-1.6,1.6l-3.79,2.07Z"/>
    </g>
  </g>
</svg>