<?xml version="1.0" encoding="UTF-8"?>
<svg id="Layer_2" data-name="Layer 2" xmlns="http://www.w3.org/2000/svg" viewBox="0 0 70.24 56.94">
  <defs>
    <style>
      .cls-1 {
        fill: #fff;
      }

      .cls-2 {
        fill: #65ddef;
      }
    </style>
  </defs>
  <g id="Layer_1-2" data-name="Layer 1">
    <g>
      <path class="cls-2" d="M20.52,43.16h28.22c3.2,0,5.79-2.59,5.79-5.79v-17.86c0-3.2-2.59-5.79-5.79-5.79h-20.1v-2.3c0-3.3,2.69-5.99,5.99-5.99,2.68,0,5.05,1.8,5.77,4.37.4,1.44,1.9,2.29,3.35,1.89,1.44-.4,2.29-1.9,1.89-3.35-1.37-4.92-5.89-8.35-11-8.35-6.3,0-11.42,5.12-11.42,11.42v2.3h-2.69c-3.2,0-5.79,2.59-5.79,5.79v17.86c0,3.2,2.59,5.79,5.79,5.79ZM35.25,22.11c2.42,0,4.38,1.96,4.38,4.38,0,1.61-.87,3.01-2.17,3.78v3.42c0,1.22-.99,2.21-2.21,2.21s-2.21-.99-2.21-2.21v-3.42c-1.29-.76-2.17-2.16-2.17-3.78,0-2.42,1.96-4.38,4.38-4.38Z"/>
      <path class="cls-1" d="M33.03,30.27v3.42c0,1.22.99,2.21,2.21,2.21s2.21-.99,2.21-2.21v-3.42c1.29-.76,2.17-2.16,2.17-3.78,0-2.42-1.96-4.38-4.38-4.38s-4.38,1.96-4.38,4.38c0,1.61.87,3.01,2.17,3.78Z"/>
      <path class="cls-2" d="M67.53,29.39c-1.5,0-2.72,1.22-2.72,2.72v17.04c0,1.3-1.06,2.36-2.36,2.36H7.79c-1.3,0-2.36-1.06-2.36-2.36v-17.04c0-1.5-1.22-2.72-2.72-2.72s-2.72,1.22-2.72,2.72v17.04c0,4.3,3.5,7.79,7.79,7.79h54.66c4.3,0,7.79-3.5,7.79-7.79v-17.04c0-1.5-1.22-2.72-2.72-2.72Z"/>
    </g>
  </g>
</svg>