<?xml version="1.0" encoding="UTF-8"?>
<svg xmlns="http://www.w3.org/2000/svg" viewBox="0 0 84.63 190.64">
  <defs>
    <style>
      .cls-1, .cls-2 {
        fill: #fff;
      }

      .cls-1, .cls-3 {
        mix-blend-mode: multiply;
        opacity: .5;
      }

      .cls-4, .cls-5 {
        stroke-miterlimit: 10;
      }

      .cls-4, .cls-5, .cls-6 {
        fill: none;
        stroke: #fff;
      }

      .cls-7 {
        isolation: isolate;
      }

      .cls-5 {
        stroke-width: 2px;
      }

      .cls-6 {
        stroke-linecap: round;
        stroke-linejoin: round;
      }
    </style>
  </defs>
  <g class="cls-7">
    <g id="Layer_2" data-name="Layer 2">
      <g id="Layer_1-2" data-name="Layer 1">
        <g>
          <g>
            <g>
              <polygon class="cls-2" points="63.58 47.88 65.13 47.88 61.1 59.6 57.08 47.88 58.64 47.88 58.64 46.01 53.52 46.01 53.52 47.88 54.73 47.88 59.56 61.93 62.66 61.93 67.49 47.88 68.69 47.88 68.69 46.01 63.58 46.01 63.58 47.88"/>
              <polygon class="cls-2" points="68.98 50.34 68.98 52.21 70.61 52.21 67.42 58.94 64.23 52.21 65.89 52.21 65.89 50.34 60.77 50.34 60.77 52.21 61.96 52.21 66.27 61.28 66.27 64.39 64.19 64.39 64.19 66.27 70.69 66.27 70.69 64.39 68.61 64.39 68.61 61.22 72.88 52.21 74.09 52.21 74.09 50.34 68.98 50.34"/>
            </g>
            <g>
              <path class="cls-2" d="M71.86,63.95v-1.1h-.39v-.22h1.05v.22h-.39v1.1h-.27Z"/>
              <path class="cls-2" d="M72.68,63.95v-1.32h.4l.24.9.24-.9h.4v1.32h-.25v-1.04l-.26,1.04h-.26l-.26-1.04v1.04h-.25Z"/>
            </g>
          </g>
          <g>
            <g>
              <g>
                <path class="cls-5" d="M83.4,165.9c.21,2.68.44,5.41-.12,8.03-.27,1.29-.77,2.58-1.49,3.68-.75,1.15-1.74,2.11-2.96,2.71-2.19,1.08-12.53,1.71-15.71-.18-.27-.16-.49-.34-.65-.54-1.99-2.53-3.71-7.97-4.33-11.13-7.13-36.04-12.57-72.97-15.82-109.57-3.25,36.59-8.69,73.52-15.82,109.57-.62,3.16-2.34,8.6-4.33,11.13-.11.14-.26.28-.44.4-2.9,2.06-13.69,1.43-15.93.32-1.16-.57-2.11-1.48-2.85-2.55-.79-1.14-1.32-2.48-1.61-3.84-.56-2.62-.32-5.35-.11-8.03,3.18-41.01-.6-82.3,1.86-123.36.24-3.96.43-7.78.87-11.47,0,0,14.81,1.44,17.2-17.95h42.36c2.35,19.08,16.69,18.04,17.15,18,.44,3.68.63,7.47.87,11.42,2.46,41.06-1.32,82.35,1.86,123.36Z"/>
                <path class="cls-5" d="M82.8,184.43c.23,1.57-.85,3.03-2.42,3.27l-12.96,1.91c-1.56.23-3.03-.85-3.26-2.42l-1.04-7.04c3.18,1.88,13.53,1.25,15.71.18,1.22-.61,2.21-1.56,2.96-2.71l1.01,6.82Z"/>
                <path class="cls-5" d="M80.68,31.12c-.46.04-14.8,1.08-17.15-18h11.54c3.46,5.78,4.87,11.72,5.61,18Z"/>
                <path class="cls-5" d="M75.07,3.31v9.8H9.56V3.31c0-1.28,1.04-2.31,2.32-2.31h60.87c1.28,0,2.31,1.04,2.31,2.31Z"/>
                <path class="cls-5" d="M21.74,180.01l-1.23,7.18c-.23,1.57-1.7,2.66-3.26,2.42l-12.96-1.91c-1.57-.24-2.66-1.7-2.42-3.27l1.08-6.66h0c.73,1.08,1.68,1.98,2.85,2.55,2.23,1.11,13.02,1.74,15.93-.32h0Z"/>
                <path class="cls-4" d="M9.56,13.12h11.61C18.77,32.51,3.96,31.07,3.96,31.07c.73-6.26,2.15-12.19,5.6-17.95Z"/>
              </g>
              <path class="cls-1" d="M66.85,13.12c2.2,11.66,9.27,14.73,13.52,15.5.12.81.23,1.63.33,2.45,0,0-14.81,1.44-17.2-17.95h3.36Z"/>
            </g>
            <g>
              <path class="cls-2" d="M40.74,7.44c0,.92-.75,1.67-1.67,1.67s-1.67-.75-1.67-1.67.75-1.67,1.67-1.67,1.67.75,1.67,1.67Z"/>
              <path class="cls-2" d="M47.23,7.44c0,.92-.75,1.67-1.67,1.67s-1.67-.75-1.67-1.67.75-1.67,1.67-1.67,1.67.75,1.67,1.67Z"/>
            </g>
            <g>
              <path class="cls-6" d="M39.04,7.45c-1.45,2.37-2.92,4.78-3.61,7.47-1.26,4.93.25,10.32-1.37,15.15-.64,1.91-1.76,3.66-3.22,5.04"/>
              <path class="cls-6" d="M45.56,7.45c1.45,2.37,2.92,4.78,3.61,7.47,1.26,4.93-.25,10.32,1.37,15.15.64,1.91,1.76,3.66,3.22,5.04"/>
              <path class="cls-2" d="M34.45,32.63c0,.85-.69,1.54-1.54,1.54s-1.54-.69-1.54-1.54.69-1.54,1.54-1.54,1.54.69,1.54,1.54Z"/>
              <path class="cls-2" d="M53.32,32.63c0,.85-.69,1.54-1.54,1.54s-1.54-.69-1.54-1.54.69-1.54,1.54-1.54,1.54.69,1.54,1.54Z"/>
            </g>
            <path class="cls-1" d="M17.81,13.12c-2.2,11.66-9.27,14.73-13.52,15.5-.12.81-.23,1.63-.33,2.45,0,0,14.81,1.44,17.2-17.95h-3.36Z"/>
            <g>
              <g class="cls-3">
                <path class="cls-2" d="M12.34,1.97c.16,1.64.2,3.28.21,4.91,0,1.64-.05,3.28-.21,4.91-.16-1.64-.2-3.28-.21-4.91,0-1.64.05-3.28.21-4.91Z"/>
              </g>
              <g class="cls-3">
                <path class="cls-2" d="M14.9,1.97c.16,1.64.2,3.28.21,4.91,0,1.64-.05,3.28-.21,4.91-.16-1.64-.2-3.28-.21-4.91,0-1.64.05-3.28.21-4.91Z"/>
              </g>
              <g class="cls-3">
                <path class="cls-2" d="M17.46,1.97c.16,1.64.2,3.28.21,4.91,0,1.64-.05,3.28-.21,4.91-.16-1.64-.2-3.28-.21-4.91,0-1.64.05-3.28.21-4.91Z"/>
              </g>
              <g class="cls-3">
                <path class="cls-2" d="M20.03,1.97c.16,1.64.2,3.28.21,4.91,0,1.64-.05,3.28-.21,4.91-.16-1.64-.2-3.28-.21-4.91,0-1.64.05-3.28.21-4.91Z"/>
              </g>
              <g class="cls-3">
                <path class="cls-2" d="M22.59,1.97c.16,1.64.2,3.28.21,4.91,0,1.64-.05,3.28-.21,4.91-.16-1.64-.2-3.28-.21-4.91,0-1.64.05-3.28.21-4.91Z"/>
              </g>
              <g class="cls-3">
                <path class="cls-2" d="M25.15,1.97c.16,1.64.2,3.28.21,4.91,0,1.64-.05,3.28-.21,4.91-.16-1.64-.2-3.28-.21-4.91,0-1.64.05-3.28.21-4.91Z"/>
              </g>
              <g class="cls-3">
                <path class="cls-2" d="M27.72,1.97c.16,1.64.2,3.28.21,4.91,0,1.64-.05,3.28-.21,4.91-.16-1.64-.2-3.28-.21-4.91,0-1.64.05-3.28.21-4.91Z"/>
              </g>
              <g class="cls-3">
                <path class="cls-2" d="M30.28,1.97c.16,1.64.2,3.28.21,4.91,0,1.64-.05,3.28-.21,4.91-.16-1.64-.2-3.28-.21-4.91,0-1.64.05-3.28.21-4.91Z"/>
              </g>
              <g class="cls-3">
                <path class="cls-2" d="M32.84,1.97c.16,1.64.2,3.28.21,4.91,0,1.64-.05,3.28-.21,4.91-.16-1.64-.2-3.28-.21-4.91,0-1.64.05-3.28.21-4.91Z"/>
              </g>
              <g class="cls-3">
                <path class="cls-2" d="M35.4,1.97c.16,1.64.2,3.28.21,4.91,0,1.64-.05,3.28-.21,4.91-.16-1.64-.2-3.28-.21-4.91,0-1.64.05-3.28.21-4.91Z"/>
              </g>
              <g class="cls-3">
                <path class="cls-2" d="M37.97,1.97c.16.66.2,1.32.21,1.97,0,.66-.05,1.32-.21,1.97-.16-.66-.2-1.32-.21-1.97,0-.66.05-1.32.21-1.97Z"/>
              </g>
              <g class="cls-3">
                <path class="cls-2" d="M40.53,1.97c.16.7.2,1.41.21,2.11,0,.7-.05,1.41-.21,2.11-.16-.7-.2-1.41-.21-2.11,0-.7.05-1.41.21-2.11Z"/>
              </g>
              <g class="cls-3">
                <path class="cls-2" d="M43.09,1.97c.16,1.64.2,3.28.21,4.91,0,1.64-.05,3.28-.21,4.91-.16-1.64-.2-3.28-.21-4.91,0-1.64.05-3.28.21-4.91Z"/>
              </g>
              <g class="cls-3">
                <path class="cls-2" d="M45.66,1.97c.16.57.2,1.14.21,1.7,0,.57-.05,1.14-.21,1.7-.16-.57-.2-1.14-.21-1.7,0-.57.05-1.14.21-1.7Z"/>
              </g>
              <g class="cls-3">
                <path class="cls-2" d="M48.22,1.97c.16,1.64.2,3.28.21,4.91,0,1.64-.05,3.28-.21,4.91-.16-1.64-.2-3.28-.21-4.91,0-1.64.05-3.28.21-4.91Z"/>
              </g>
              <g class="cls-3">
                <path class="cls-2" d="M50.78,1.97c.16,1.64.2,3.28.21,4.91,0,1.64-.05,3.28-.21,4.91-.16-1.64-.2-3.28-.21-4.91,0-1.64.05-3.28.21-4.91Z"/>
              </g>
              <g class="cls-3">
                <path class="cls-2" d="M53.35,1.97c.16,1.64.2,3.28.21,4.91,0,1.64-.05,3.28-.21,4.91-.16-1.64-.2-3.28-.21-4.91,0-1.64.05-3.28.21-4.91Z"/>
              </g>
              <g class="cls-3">
                <path class="cls-2" d="M55.91,1.97c.16,1.64.2,3.28.21,4.91,0,1.64-.05,3.28-.21,4.91-.16-1.64-.2-3.28-.21-4.91,0-1.64.05-3.28.21-4.91Z"/>
              </g>
              <g class="cls-3">
                <path class="cls-2" d="M58.47,1.97c.16,1.64.2,3.28.21,4.91,0,1.64-.05,3.28-.21,4.91-.16-1.64-.2-3.28-.21-4.91,0-1.64.05-3.28.21-4.91Z"/>
              </g>
              <g class="cls-3">
                <path class="cls-2" d="M61.04,1.97c.16,1.64.2,3.28.21,4.91,0,1.64-.05,3.28-.21,4.91-.16-1.64-.2-3.28-.21-4.91,0-1.64.05-3.28.21-4.91Z"/>
              </g>
              <g class="cls-3">
                <path class="cls-2" d="M63.6,1.97c.16,1.64.2,3.28.21,4.91,0,1.64-.05,3.28-.21,4.91-.16-1.64-.2-3.28-.21-4.91,0-1.64.05-3.28.21-4.91Z"/>
              </g>
              <g class="cls-3">
                <path class="cls-2" d="M66.16,1.97c.16,1.64.2,3.28.21,4.91,0,1.64-.05,3.28-.21,4.91-.16-1.64-.2-3.28-.21-4.91,0-1.64.05-3.28.21-4.91Z"/>
              </g>
              <g class="cls-3">
                <path class="cls-2" d="M68.72,1.97c.16,1.64.2,3.28.21,4.91,0,1.64-.05,3.28-.21,4.91-.16-1.64-.2-3.28-.21-4.91,0-1.64.05-3.28.21-4.91Z"/>
              </g>
              <g class="cls-3">
                <path class="cls-2" d="M71.29,1.97c.16,1.64.2,3.28.21,4.91,0,1.64-.05,3.28-.21,4.91-.16-1.64-.2-3.28-.21-4.91,0-1.64.05-3.28.21-4.91Z"/>
              </g>
              <g class="cls-3">
                <path class="cls-2" d="M73.85,2.14c.16,1.64.2,3.28.21,4.91,0,1.64-.05,3.28-.21,4.91-.16-1.64-.2-3.28-.21-4.91,0-1.64.05-3.28.21-4.91Z"/>
              </g>
            </g>
          </g>
        </g>
      </g>
    </g>
  </g>
</svg>