<?xml version="1.0" encoding="UTF-8"?>
<svg id="Layer_2" data-name="Layer 2" xmlns="http://www.w3.org/2000/svg" viewBox="0 0 55.66 57.52">
  <defs>
    <style>
      .cls-1 {
        fill: #65ddef;
      }
    </style>
  </defs>
  <g id="Layer_1-2" data-name="Layer 1">
    <g>
      <path class="cls-1" d="M46.8,18.37s.04,0,.06,0l.91-1.9c-.15-.21-.37-.37-.63-.44.39-.11.71-.4.85-.77.05.13.11.24.2.35l.88-1.84.11-.23.97-2.02c-.08-.09-.18-.17-.29-.23.21-.12.38-.28.51-.48.02.04.05.07.07.11l.85-1.77.23-.48,1-2.09s-.02-.02-.04-.03c.03-.02.06-.05.09-.07l.12-.25.41-.85.42-.88.35-.72.82-1.71.2-.42.05-.1.63-1.32.11-.22-.14.08-.91.52-1.74,1-.19.11-.06.04-.85.49-.99.57-.81.47-.9.51-.83.48-.22.12-.13.07-1.95,1.12-.57.33-.61.35-.88.5-.5.29-.36.21-2.07,1.19-.12.07-.52.3-.62.35-1.02.58-.39.22-1.94,1.11c.08.08.18.15.28.21-.21.13-.39.31-.51.54-.08-.16-.2-.3-.34-.42l-1.89,1.08-.28.16-1.68.97s.06.03.09.04c-.3.14-.53.39-.65.7-.04-.12-.1-.22-.18-.32l-2.18,1.25c.15.36.46.64.84.74-.45.13-.79.52-.85.99-.06-.48-.4-.86-.85-.99.38-.1.68-.37.83-.73l-1.17.67-1.17-.67c.15.35.46.62.83.73-.45.13-.79.52-.85.99-.06-.48-.4-.86-.85-.99.38-.1.69-.38.84-.74l-2.18-1.25c-.07.1-.14.21-.18.32-.12-.31-.35-.56-.65-.7.03-.01.06-.03.09-.04l-1.68-.97-.28-.16-1.89-1.08c-.14.11-.25.26-.34.42-.12-.22-.29-.41-.51-.54.1-.06.2-.13.28-.21l-1.94-1.11-.39-.22-1.02-.58-.62-.35-.52-.3-.12-.07-2.07-1.19-.36-.21-.5-.29-.88-.5-.61-.35-.57-.33-1.95-1.12-.13-.07-.22-.12-.83-.48-.9-.51-.81-.47-.99-.57-.85-.49-.06-.04-.19-.11L1.05.6.14.08l-.14-.08.11.22.63,1.32.05.1.2.42.82,1.71.35.72.42.88.41.85.12.25s.06.05.09.07c-.01.01-.02.02-.04.03l1,2.09.23.48.85,1.77s.05-.07.07-.11c.13.2.3.37.51.48-.11.06-.2.14-.29.23l.97,2.02.11.23.88,1.84c.08-.1.15-.22.2-.35.14.38.46.67.85.77-.26.07-.48.23-.63.44l.91,1.9s.04,0,.06,0c.61,0,1.11-.45,1.19-1.04.08.59.58,1.04,1.19,1.04s1.11-.45,1.19-1.04c.08.59.58,1.04,1.19,1.04s1.11-.45,1.19-1.04c.08.59.58,1.04,1.19,1.04s1.11-.45,1.19-1.04c.08.59.58,1.04,1.19,1.04s1.11-.45,1.19-1.04c.08.59.58,1.04,1.19,1.04s1.11-.45,1.19-1.04c.08.59.58,1.04,1.19,1.04s1.11-.45,1.19-1.04c.08.59.58,1.04,1.19,1.04s1.11-.45,1.19-1.04c.08.59.58,1.04,1.19,1.04s1.11-.45,1.19-1.04c.08.59.58,1.04,1.19,1.04s1.11-.45,1.19-1.04c.08.59.58,1.04,1.19,1.04s1.11-.45,1.19-1.04c.08.59.58,1.04,1.19,1.04s1.11-.45,1.19-1.04c.08.59.58,1.04,1.19,1.04s1.11-.45,1.19-1.04c.08.59.58,1.04,1.19,1.04s1.11-.45,1.19-1.04c.08.59.58,1.04,1.19,1.04s1.11-.45,1.19-1.04c.08.59.58,1.04,1.19,1.04s1.11-.45,1.19-1.04c.08.59.58,1.04,1.19,1.04ZM46.47,16.03c-.45.13-.79.52-.85.99-.06-.48-.4-.86-.85-.99.39-.11.71-.4.85-.77.14.38.46.67.85.77ZM32.91,16.03c.39-.11.71-.4.85-.77.14.38.46.67.85.77-.45.13-.79.52-.85.99-.06-.48-.4-.86-.85-.99ZM35.48,13.65c.28-.12.51-.34.65-.61.14.27.37.49.65.61-.3.14-.53.39-.65.7-.12-.31-.35-.56-.65-.7ZM40.37,11.28c.21-.12.38-.28.51-.48.13.2.3.37.51.48-.21.13-.39.31-.51.54-.12-.22-.29-.41-.51-.54ZM42.87,8.92c.15-.1.27-.22.38-.36.1.14.23.26.38.36-.15.11-.28.24-.38.4-.1-.16-.23-.29-.38-.4ZM47.99,6.3c.08.09.16.17.26.25-.1.08-.18.17-.26.27-.07-.1-.16-.19-.26-.27.1-.07.18-.15.26-.25ZM50.62,6.54c-.1.08-.18.17-.26.27-.07-.1-.16-.19-.26-.27.1-.07.18-.15.26-.25.08.09.16.17.26.25ZM48.37,8.92c-.15.11-.28.24-.38.4-.1-.16-.23-.29-.38-.4.15-.1.27-.22.38-.36.1.14.23.26.38.36ZM46.12,11.28c-.21.13-.39.31-.51.54-.12-.22-.29-.41-.51-.54.21-.12.38-.28.51-.48.13.2.3.37.51.48ZM46.27,13.65c-.3.14-.53.39-.65.7-.12-.31-.35-.56-.65-.7.28-.12.51-.34.65-.61.14.27.37.49.65.61ZM37.85,13.65c.28-.12.51-.34.65-.61.14.27.37.49.65.61-.3.14-.53.39-.65.7-.12-.31-.35-.56-.65-.7ZM42.74,11.28c.21-.12.38-.28.51-.48.13.2.3.37.51.48-.21.13-.39.31-.51.54-.12-.22-.29-.41-.51-.54ZM45.24,8.92c.15-.1.27-.22.38-.36.1.14.23.26.38.36-.15.11-.28.24-.38.4-.1-.16-.23-.29-.38-.4ZM43.9,13.65c-.3.14-.53.39-.65.7-.12-.31-.35-.56-.65-.7.28-.12.51-.34.65-.61.14.27.37.49.65.61ZM40.23,13.65c.28-.12.51-.34.65-.61.14.27.37.49.65.61-.3.14-.53.39-.65.7-.12-.31-.35-.56-.65-.7ZM35.28,16.03c.39-.11.71-.4.85-.77.14.38.46.67.85.77-.45.13-.79.52-.85.99-.06-.48-.4-.86-.85-.99ZM37.65,16.03c.39-.11.71-.4.85-.77.14.38.46.67.85.77-.45.13-.79.52-.85.99-.06-.48-.4-.86-.85-.99ZM40.02,16.03c.39-.11.71-.4.85-.77.14.38.46.67.85.77-.45.13-.79.52-.85.99-.06-.48-.4-.86-.85-.99ZM42.4,16.03c.39-.11.71-.4.85-.77.14.38.46.67.85.77-.45.13-.79.52-.85.99-.06-.48-.4-.86-.85-.99ZM48.64,13.65c-.3.14-.53.39-.65.7-.12-.31-.35-.56-.65-.7.28-.12.51-.34.65-.61.14.27.37.49.65.61ZM48.5,11.28c-.21.13-.39.31-.51.54-.12-.22-.29-.41-.51-.54.21-.12.38-.28.51-.48.13.2.3.37.51.48ZM50.74,8.92c-.15.11-.28.24-.38.4-.1-.16-.23-.29-.38-.4.15-.1.27-.22.38-.36.1.14.23.26.38.36ZM52.73,4.34c-.05-.06-.1-.11-.15-.16.05-.04.1-.09.15-.14.05.05.1.1.15.14-.05.05-.1.1-.15.16ZM52.73,1.76s.03.03.05.05c-.02.02-.03.03-.05.05-.02-.02-.03-.03-.05-.05.02-.01.03-.03.05-.05ZM50.36,4.04c.05.05.1.1.15.14-.05.05-.1.1-.15.16-.05-.06-.1-.11-.15-.16.05-.04.1-.09.15-.14ZM45.62,6.3c.08.09.16.17.26.25-.1.08-.18.17-.26.27-.07-.1-.16-.19-.26-.27.1-.07.18-.15.26-.25ZM40.5,8.92c.15-.1.27-.22.38-.36.1.14.23.26.38.36-.15.11-.28.24-.38.4-.1-.16-.23-.29-.38-.4ZM38,11.28c.21-.12.38-.28.51-.48.13.2.3.37.51.48-.21.13-.39.31-.51.54-.12-.22-.29-.41-.51-.54ZM33.11,13.65c.28-.12.51-.34.65-.61.14.27.37.49.65.61-.3.14-.53.39-.65.7-.12-.31-.35-.56-.65-.7ZM30.54,16.03c.39-.11.71-.4.85-.77.14.38.46.67.85.77-.45.13-.79.52-.85.99-.06-.48-.4-.86-.85-.99ZM25.13,16.03c-.45.13-.79.52-.85.99-.06-.48-.4-.86-.85-.99.39-.11.71-.4.85-.77.14.38.46.67.85.77ZM11.57,16.03c.39-.11.71-.4.85-.77.14.38.46.67.85.77-.45.13-.79.52-.85.99-.06-.48-.4-.86-.85-.99ZM9.4,13.65c.28-.12.51-.34.65-.61.14.27.37.49.65.61-.3.14-.53.39-.65.7-.12-.31-.35-.56-.65-.7ZM9.54,11.28c.21-.12.38-.28.51-.48.13.2.3.37.51.48-.21.13-.39.31-.51.54-.12-.22-.29-.41-.51-.54ZM7.3,8.92c.15-.1.27-.22.38-.36.1.14.23.26.38.36-.15.11-.28.24-.38.4-.1-.16-.23-.29-.38-.4ZM5.04,6.54c.1-.07.18-.15.26-.25.08.09.16.17.26.25-.1.08-.18.17-.26.27-.07-.1-.16-.19-.26-.27ZM7.93,6.54c-.1.08-.18.17-.26.27-.07-.1-.16-.19-.26-.27.1-.07.18-.15.26-.25.08.09.16.17.26.25ZM12.79,8.92c-.15.11-.28.24-.38.4-.1-.16-.23-.29-.38-.4.15-.1.27-.22.38-.36.1.14.23.26.38.36ZM15.29,11.28c-.21.13-.39.31-.51.54-.12-.22-.29-.41-.51-.54.21-.12.38-.28.51-.48.13.2.3.37.51.48ZM20.18,13.65c-.3.14-.53.39-.65.7-.12-.31-.35-.56-.65-.7.28-.12.51-.34.65-.61.14.27.37.49.65.61ZM11.77,13.65c.28-.12.51-.34.65-.61.14.27.37.49.65.61-.3.14-.53.39-.65.7-.12-.31-.35-.56-.65-.7ZM11.91,11.28c.21-.12.38-.28.51-.48.13.2.3.37.51.48-.21.13-.39.31-.51.54-.12-.22-.29-.41-.51-.54ZM15.44,13.65c-.3.14-.53.39-.65.7-.12-.31-.35-.56-.65-.7.28-.12.51-.34.65-.61.14.27.37.49.65.61ZM17.81,13.65c-.3.14-.53.39-.65.7-.12-.31-.35-.56-.65-.7.28-.12.51-.34.65-.61.14.27.37.49.65.61ZM10.42,8.92c-.15.11-.28.24-.38.4-.1-.16-.23-.29-.38-.4.15-.1.27-.22.38-.36.1.14.23.26.38.36ZM13.94,16.03c.39-.11.71-.4.85-.77.14.38.46.67.85.77-.45.13-.79.52-.85.99-.06-.48-.4-.86-.85-.99ZM16.31,16.03c.39-.11.71-.4.85-.77.14.38.46.67.85.77-.45.13-.79.52-.85.99-.06-.48-.4-.86-.85-.99ZM18.68,16.03c.39-.11.71-.4.85-.77.14.38.46.67.85.77-.45.13-.79.52-.85.99-.06-.48-.4-.86-.85-.99ZM21.05,16.03c.39-.11.71-.4.85-.77.14.38.46.67.85.77-.45.13-.79.52-.85.99-.06-.48-.4-.86-.85-.99ZM22.55,13.65c-.3.14-.53.39-.65.7-.12-.31-.35-.56-.65-.7.28-.12.51-.34.65-.61.14.27.37.49.65.61ZM17.67,11.28c-.21.13-.39.31-.51.54-.12-.22-.29-.41-.51-.54.21-.12.38-.28.51-.48.13.2.3.37.51.48ZM15.16,8.92c-.15.11-.28.24-.38.4-.1-.16-.23-.29-.38-.4.15-.1.27-.22.38-.36.1.14.23.26.38.36ZM10.3,6.54c-.1.08-.18.17-.26.27-.07-.1-.16-.19-.26-.27.1-.07.18-.15.26-.25.08.09.16.17.26.25ZM5.45,4.18c-.05.05-.1.1-.15.16-.05-.06-.1-.11-.15-.16.05-.04.1-.09.15-.14.05.05.1.1.15.14ZM2.93,1.76s.03.03.05.05c-.02.02-.03.03-.05.05-.02-.02-.03-.03-.05-.05.02-.01.03-.03.05-.05ZM2.93,4.04c.05.05.1.1.15.14-.05.05-.1.1-.15.16-.05-.06-.1-.11-.15-.16.05-.04.1-.09.15-.14ZM4.93,8.92c.15-.1.27-.22.38-.36.1.14.23.26.38.36-.15.11-.28.24-.38.4-.1-.16-.23-.29-.38-.4ZM7.17,11.28c.21-.12.38-.28.51-.48.13.2.3.37.51.48-.21.13-.39.31-.51.54-.12-.22-.29-.41-.51-.54ZM7.02,13.65c.28-.12.51-.34.65-.61.14.27.37.49.65.61-.3.14-.53.39-.65.7-.12-.31-.35-.56-.65-.7ZM9.19,16.03c.39-.11.71-.4.85-.77.14.38.46.67.85.77-.45.13-.79.52-.85.99-.06-.48-.4-.86-.85-.99Z"/>
      <path class="cls-1" d="M45.67,19.55c0,.28.1.54.27.73l.89-1.86s-.02,0-.03,0c-.62,0-1.13.51-1.13,1.13Z"/>
      <circle class="cls-1" cx="44.43" cy="19.55" r="1.13"/>
      <path class="cls-1" d="M45.38,21.45c-.17-.35-.53-.59-.95-.59-.58,0-1.06.47-1.06,1.06s.47,1.06,1.06,1.06c.08,0,.16,0,.23-.03l.72-1.5Z"/>
      <path class="cls-1" d="M43.44,24.29c0,.26.1.49.26.67l.8-1.66s-.04,0-.06,0c-.55,0-.99.44-.99.99Z"/>
      <circle class="cls-1" cx="42.06" cy="19.55" r="1.13"/>
      <circle class="cls-1" cx="42.06" cy="21.92" r="1.06"/>
      <circle class="cls-1" cx="42.06" cy="24.29" r=".99"/>
      <path class="cls-1" d="M42.97,26.49c-.08-.43-.45-.75-.9-.75-.51,0-.92.41-.92.92s.41.92.92.92c.16,0,.31-.04.43-.11l.47-.98Z"/>
      <path class="cls-1" d="M41.21,29.03c0,.24.1.45.25.61l.7-1.46s-.06,0-.09,0c-.47,0-.85.38-.85.85Z"/>
      <circle class="cls-1" cx="39.69" cy="19.55" r="1.13"/>
      <circle class="cls-1" cx="39.69" cy="21.92" r="1.06"/>
      <circle class="cls-1" cx="39.69" cy="24.29" r=".99"/>
      <circle class="cls-1" cx="39.69" cy="26.66" r=".92"/>
      <path class="cls-1" d="M40.54,29.03c0-.47-.38-.85-.85-.85s-.85.38-.85.85.38.85.85.85.85-.38.85-.85Z"/>
      <circle class="cls-1" cx="39.69" cy="31.4" r=".79"/>
      <path class="cls-1" d="M38.97,33.77c0,.21.09.41.24.54l.6-1.24s-.08-.01-.12-.01c-.4,0-.72.32-.72.72Z"/>
      <circle class="cls-1" cx="37.32" cy="19.55" r="1.13"/>
      <circle class="cls-1" cx="37.32" cy="21.92" r="1.06"/>
      <circle class="cls-1" cx="37.32" cy="24.29" r=".99"/>
      <circle class="cls-1" cx="37.32" cy="26.66" r=".92"/>
      <path class="cls-1" d="M38.17,29.03c0-.47-.38-.85-.85-.85s-.85.38-.85.85.38.85.85.85.85-.38.85-.85Z"/>
      <circle class="cls-1" cx="37.32" cy="31.4" r=".79"/>
      <circle class="cls-1" cx="37.32" cy="33.77" r=".72"/>
      <path class="cls-1" d="M37.97,36.15c0-.36-.29-.65-.65-.65s-.65.29-.65.65.29.65.65.65.65-.29.65-.65Z"/>
      <path class="cls-1" d="M36.74,38.52c0,.19.09.36.24.47l.49-1.03s-.1-.02-.15-.02c-.32,0-.58.26-.58.58Z"/>
      <circle class="cls-1" cx="34.95" cy="19.55" r="1.13"/>
      <circle class="cls-1" cx="34.95" cy="21.92" r="1.06"/>
      <circle class="cls-1" cx="34.95" cy="24.29" r=".99"/>
      <circle class="cls-1" cx="34.95" cy="26.66" r=".92"/>
      <path class="cls-1" d="M35.8,29.03c0-.47-.38-.85-.85-.85s-.85.38-.85.85.38.85.85.85.85-.38.85-.85Z"/>
      <circle class="cls-1" cx="34.95" cy="31.4" r=".79"/>
      <circle class="cls-1" cx="34.95" cy="33.77" r=".72"/>
      <path class="cls-1" d="M35.6,36.15c0-.36-.29-.65-.65-.65s-.65.29-.65.65.29.65.65.65.65-.29.65-.65Z"/>
      <path class="cls-1" d="M35.53,38.52c0-.32-.26-.58-.58-.58s-.58.26-.58.58.26.58.58.58.58-.26.58-.58Z"/>
      <path class="cls-1" d="M35.46,40.89c0-.28-.23-.51-.51-.51s-.51.23-.51.51.23.51.51.51.51-.23.51-.51Z"/>
      <path class="cls-1" d="M34.5,43.26c0,.17.1.32.24.4l.39-.81c-.05-.02-.11-.04-.18-.04-.25,0-.45.2-.45.45Z"/>
      <circle class="cls-1" cx="32.58" cy="19.55" r="1.13"/>
      <circle class="cls-1" cx="32.58" cy="21.92" r="1.06"/>
      <circle class="cls-1" cx="32.58" cy="24.29" r=".99"/>
      <circle class="cls-1" cx="32.58" cy="26.66" r=".92"/>
      <path class="cls-1" d="M33.43,29.03c0-.47-.38-.85-.85-.85s-.85.38-.85.85.38.85.85.85.85-.38.85-.85Z"/>
      <circle class="cls-1" cx="32.58" cy="31.4" r=".79"/>
      <circle class="cls-1" cx="32.58" cy="33.77" r=".72"/>
      <path class="cls-1" d="M33.23,36.15c0-.36-.29-.65-.65-.65s-.65.29-.65.65.29.65.65.65.65-.29.65-.65Z"/>
      <path class="cls-1" d="M33.15,38.52c0-.32-.26-.58-.58-.58s-.58.26-.58.58.26.58.58.58.58-.26.58-.58Z"/>
      <path class="cls-1" d="M33.09,40.89c0-.28-.23-.51-.51-.51s-.51.23-.51.51.23.51.51.51.51-.23.51-.51Z"/>
      <path class="cls-1" d="M33.02,43.26c0-.25-.2-.45-.45-.45s-.45.2-.45.45.2.45.45.45.45-.2.45-.45Z"/>
      <path class="cls-1" d="M32.95,45.63c0-.21-.17-.37-.37-.37s-.37.17-.37.37.17.37.37.37.37-.17.37-.37Z"/>
      <path class="cls-1" d="M32.27,48c0,.15.1.27.24.3l.26-.54c-.05-.04-.12-.07-.19-.07-.17,0-.31.14-.31.31Z"/>
      <circle class="cls-1" cx="30.2" cy="19.55" r="1.13"/>
      <circle class="cls-1" cx="30.2" cy="21.92" r="1.06"/>
      <circle class="cls-1" cx="30.2" cy="24.29" r=".99"/>
      <circle class="cls-1" cx="30.2" cy="26.66" r=".92"/>
      <path class="cls-1" d="M31.06,29.03c0-.47-.38-.85-.85-.85s-.85.38-.85.85.38.85.85.85.85-.38.85-.85Z"/>
      <circle class="cls-1" cx="30.2" cy="31.4" r=".79"/>
      <circle class="cls-1" cx="30.2" cy="33.77" r=".72"/>
      <path class="cls-1" d="M30.85,36.15c0-.36-.29-.65-.65-.65s-.65.29-.65.65.29.65.65.65.65-.29.65-.65Z"/>
      <path class="cls-1" d="M30.78,38.52c0-.32-.26-.58-.58-.58s-.58.26-.58.58.26.58.58.58.58-.26.58-.58Z"/>
      <path class="cls-1" d="M30.72,40.89c0-.28-.23-.51-.51-.51s-.51.23-.51.51.23.51.51.51.51-.23.51-.51Z"/>
      <path class="cls-1" d="M30.65,43.26c0-.25-.2-.45-.45-.45s-.45.2-.45.45.2.45.45.45.45-.2.45-.45Z"/>
      <path class="cls-1" d="M30.58,45.63c0-.21-.17-.37-.37-.37s-.37.17-.37.37.17.37.37.37.37-.17.37-.37Z"/>
      <path class="cls-1" d="M30.51,48c0-.17-.14-.31-.31-.31s-.31.14-.31.31.14.31.31.31.31-.14.31-.31Z"/>
      <path class="cls-1" d="M30.44,50.38c0-.13-.11-.24-.24-.24s-.24.11-.24.24.11.24.24.24.24-.11.24-.24Z"/>
      <path class="cls-1" d="M30.37,52.76s0-.01,0-.02c0-.09-.08-.17-.17-.17s-.17.08-.17.17.08.17.17.17c.05,0,.09-.02.12-.05l.05-.11Z"/>
      <circle class="cls-1" cx="27.83" cy="19.55" r="1.13"/>
      <circle class="cls-1" cx="27.83" cy="21.92" r="1.06"/>
      <circle class="cls-1" cx="27.83" cy="24.29" r=".99"/>
      <circle class="cls-1" cx="27.83" cy="26.66" r=".92"/>
      <path class="cls-1" d="M28.69,29.03c0-.47-.38-.85-.85-.85s-.85.38-.85.85.38.85.85.85.85-.38.85-.85Z"/>
      <circle class="cls-1" cx="27.83" cy="31.4" r=".79"/>
      <circle class="cls-1" cx="27.83" cy="33.77" r=".72"/>
      <path class="cls-1" d="M28.48,36.15c0-.36-.29-.65-.65-.65s-.65.29-.65.65.29.65.65.65.65-.29.65-.65Z"/>
      <path class="cls-1" d="M28.41,38.52c0-.32-.26-.58-.58-.58s-.58.26-.58.58.26.58.58.58.58-.26.58-.58Z"/>
      <path class="cls-1" d="M28.35,40.89c0-.28-.23-.51-.51-.51s-.51.23-.51.51.23.51.51.51.51-.23.51-.51Z"/>
      <path class="cls-1" d="M28.28,43.26c0-.25-.2-.45-.45-.45s-.45.2-.45.45.2.45.45.45.45-.2.45-.45Z"/>
      <path class="cls-1" d="M28.21,45.63c0-.21-.17-.37-.37-.37s-.37.17-.37.37.17.37.37.37.37-.17.37-.37Z"/>
      <path class="cls-1" d="M28.14,48c0-.17-.14-.31-.31-.31s-.31.14-.31.31.14.31.31.31.31-.14.31-.31Z"/>
      <path class="cls-1" d="M28.07,50.38c0-.13-.11-.24-.24-.24s-.24.11-.24.24.11.24.24.24.24-.11.24-.24Z"/>
      <path class="cls-1" d="M28,52.75c0-.09-.08-.17-.17-.17s-.17.08-.17.17.08.17.17.17.17-.08.17-.17Z"/>
      <path class="cls-1" d="M27.93,55.12c0-.05-.04-.1-.1-.1s-.1.04-.1.1.04.1.1.1.1-.04.1-.1Z"/>
      <path class="cls-1" d="M27.86,57.49s-.01-.03-.03-.03-.03.01-.03.03.01.03.03.03.03-.01.03-.03Z"/>
      <circle class="cls-1" cx="25.46" cy="19.55" r="1.13"/>
      <circle class="cls-1" cx="25.46" cy="21.92" r="1.06"/>
      <circle class="cls-1" cx="25.46" cy="24.29" r=".99"/>
      <circle class="cls-1" cx="25.46" cy="26.66" r=".92"/>
      <path class="cls-1" d="M26.32,29.03c0-.47-.38-.85-.85-.85s-.85.38-.85.85.38.85.85.85.85-.38.85-.85Z"/>
      <circle class="cls-1" cx="25.46" cy="31.4" r=".79"/>
      <circle class="cls-1" cx="25.46" cy="33.77" r=".72"/>
      <path class="cls-1" d="M26.11,36.15c0-.36-.29-.65-.65-.65s-.65.29-.65.65.29.65.65.65.65-.29.65-.65Z"/>
      <path class="cls-1" d="M26.04,38.52c0-.32-.26-.58-.58-.58s-.58.26-.58.58.26.58.58.58.58-.26.58-.58Z"/>
      <path class="cls-1" d="M25.97,40.89c0-.28-.23-.51-.51-.51s-.51.23-.51.51.23.51.51.51.51-.23.51-.51Z"/>
      <path class="cls-1" d="M25.91,43.26c0-.25-.2-.45-.45-.45s-.45.2-.45.45.2.45.45.45.45-.2.45-.45Z"/>
      <path class="cls-1" d="M25.84,45.63c0-.21-.17-.37-.37-.37s-.37.17-.37.37.17.37.37.37.37-.17.37-.37Z"/>
      <path class="cls-1" d="M25.77,48c0-.17-.14-.31-.31-.31s-.31.14-.31.31.14.31.31.31.31-.14.31-.31Z"/>
      <path class="cls-1" d="M25.7,50.38c0-.13-.11-.24-.24-.24s-.24.11-.24.24.11.24.24.24.24-.11.24-.24Z"/>
      <path class="cls-1" d="M25.63,52.75c0-.09-.08-.17-.17-.17s-.17.08-.17.17c0,0,0,.01,0,.02l.05.11s.07.05.12.05c.09,0,.17-.08.17-.17Z"/>
      <circle class="cls-1" cx="23.09" cy="19.55" r="1.13"/>
      <circle class="cls-1" cx="23.09" cy="21.92" r="1.06"/>
      <circle class="cls-1" cx="23.09" cy="24.29" r=".99"/>
      <circle class="cls-1" cx="23.09" cy="26.66" r=".92"/>
      <path class="cls-1" d="M23.94,29.03c0-.47-.38-.85-.85-.85s-.85.38-.85.85.38.85.85.85.85-.38.85-.85Z"/>
      <circle class="cls-1" cx="23.09" cy="31.4" r=".79"/>
      <circle class="cls-1" cx="23.09" cy="33.77" r=".72"/>
      <path class="cls-1" d="M23.74,36.15c0-.36-.29-.65-.65-.65s-.65.29-.65.65.29.65.65.65.65-.29.65-.65Z"/>
      <path class="cls-1" d="M23.67,38.52c0-.32-.26-.58-.58-.58s-.58.26-.58.58.26.58.58.58.58-.26.58-.58Z"/>
      <path class="cls-1" d="M23.6,40.89c0-.28-.23-.51-.51-.51s-.51.23-.51.51.23.51.51.51.51-.23.51-.51Z"/>
      <path class="cls-1" d="M23.54,43.26c0-.25-.2-.45-.45-.45s-.45.2-.45.45.2.45.45.45.45-.2.45-.45Z"/>
      <path class="cls-1" d="M23.46,45.63c0-.21-.17-.37-.37-.37s-.37.17-.37.37.17.37.37.37.37-.17.37-.37Z"/>
      <path class="cls-1" d="M23.4,48c0-.17-.14-.31-.31-.31-.07,0-.14.03-.19.07l.26.54c.14-.03.24-.15.24-.3Z"/>
      <circle class="cls-1" cx="20.72" cy="19.55" r="1.13"/>
      <circle class="cls-1" cx="20.72" cy="21.92" r="1.06"/>
      <circle class="cls-1" cx="20.72" cy="24.29" r=".99"/>
      <circle class="cls-1" cx="20.72" cy="26.66" r=".92"/>
      <path class="cls-1" d="M21.57,29.03c0-.47-.38-.85-.85-.85s-.85.38-.85.85.38.85.85.85.85-.38.85-.85Z"/>
      <circle class="cls-1" cx="20.72" cy="31.4" r=".79"/>
      <circle class="cls-1" cx="20.72" cy="33.77" r=".72"/>
      <path class="cls-1" d="M21.37,36.15c0-.36-.29-.65-.65-.65s-.65.29-.65.65.29.65.65.65.65-.29.65-.65Z"/>
      <path class="cls-1" d="M21.3,38.52c0-.32-.26-.58-.58-.58s-.58.26-.58.58.26.58.58.58.58-.26.58-.58Z"/>
      <path class="cls-1" d="M21.23,40.89c0-.28-.23-.51-.51-.51s-.51.23-.51.51.23.51.51.51.51-.23.51-.51Z"/>
      <path class="cls-1" d="M21.16,43.26c0-.25-.2-.45-.45-.45-.06,0-.12.01-.18.04l.39.81c.14-.07.24-.22.24-.4Z"/>
      <circle class="cls-1" cx="18.35" cy="19.55" r="1.13"/>
      <circle class="cls-1" cx="18.35" cy="21.92" r="1.06"/>
      <circle class="cls-1" cx="18.35" cy="24.29" r=".99"/>
      <circle class="cls-1" cx="18.35" cy="26.66" r=".92"/>
      <path class="cls-1" d="M19.2,29.03c0-.47-.38-.85-.85-.85s-.85.38-.85.85.38.85.85.85.85-.38.85-.85Z"/>
      <circle class="cls-1" cx="18.35" cy="31.4" r=".79"/>
      <circle class="cls-1" cx="18.35" cy="33.77" r=".72"/>
      <path class="cls-1" d="M19,36.15c0-.36-.29-.65-.65-.65s-.65.29-.65.65.29.65.65.65.65-.29.65-.65Z"/>
      <path class="cls-1" d="M18.92,38.52c0-.32-.26-.58-.58-.58-.05,0-.1,0-.15.02l.49,1.03c.14-.11.24-.27.24-.47Z"/>
      <circle class="cls-1" cx="15.97" cy="19.55" r="1.13"/>
      <circle class="cls-1" cx="15.97" cy="21.92" r="1.06"/>
      <circle class="cls-1" cx="15.97" cy="24.29" r=".99"/>
      <circle class="cls-1" cx="15.97" cy="26.66" r=".92"/>
      <path class="cls-1" d="M16.83,29.03c0-.47-.38-.85-.85-.85s-.85.38-.85.85.38.85.85.85.85-.38.85-.85Z"/>
      <circle class="cls-1" cx="15.97" cy="31.4" r=".79"/>
      <path class="cls-1" d="M16.69,33.77c0-.4-.32-.72-.72-.72-.04,0-.08,0-.12.01l.6,1.24c.15-.13.24-.32.24-.54Z"/>
      <circle class="cls-1" cx="13.6" cy="19.55" r="1.13"/>
      <circle class="cls-1" cx="13.6" cy="21.92" r="1.06"/>
      <circle class="cls-1" cx="13.6" cy="24.29" r=".99"/>
      <path class="cls-1" d="M14.52,26.66c0-.51-.41-.92-.92-.92-.45,0-.83.32-.9.75l.47.98c.13.07.28.11.43.11.51,0,.92-.41.92-.92Z"/>
      <path class="cls-1" d="M13.6,28.18s-.06,0-.09,0l.7,1.46c.16-.15.25-.37.25-.61,0-.47-.38-.85-.85-.85Z"/>
      <circle class="cls-1" cx="11.23" cy="19.55" r="1.13"/>
      <path class="cls-1" d="M12.29,21.92c0-.58-.47-1.06-1.06-1.06-.42,0-.78.24-.95.59l.72,1.5c.07.02.15.03.23.03.58,0,1.06-.47,1.06-1.06Z"/>
      <path class="cls-1" d="M11.23,23.3s-.04,0-.06,0l.8,1.66c.16-.18.26-.41.26-.67,0-.55-.44-.99-.99-.99Z"/>
      <path class="cls-1" d="M8.86,18.41s-.02,0-.03,0l.89,1.86c.17-.2.27-.45.27-.73,0-.62-.51-1.13-1.13-1.13Z"/>
    </g>
  </g>
</svg>